<?xml version="1.0" encoding="UTF-8"?>
<!DOCTYPE svg PUBLIC "-//W3C//DTD SVG 1.1//EN" "http://www.w3.org/Graphics/SVG/1.1/DTD/svg11.dtd">
<!-- Creator: CorelDRAW 2019 (64-Bit) -->
<svg xmlns="http://www.w3.org/2000/svg" xml:space="preserve" width="16.576cm" height="15.673cm" version="1.1" style="shape-rendering:geometricPrecision; text-rendering:geometricPrecision; image-rendering:optimizeQuality; fill-rule:evenodd; clip-rule:evenodd"
viewBox="0 0 16576 15673"
 xmlns:xlink="http://www.w3.org/1999/xlink"
 xmlns:xodm="http://www.corel.com/coreldraw/odm/2003">
 <defs>
  <style type="text/css">
   <![CDATA[
    .fil1 {fill:#C6E8EF}
    .fil0 {fill:white}
    .fil10 {fill:#FEFEFE;fill-rule:nonzero}
    .fil15 {fill:#FABFB4;fill-rule:nonzero}
    .fil16 {fill:#F5893F;fill-rule:nonzero}
    .fil9 {fill:#F58442;fill-rule:nonzero}
    .fil6 {fill:#F27284;fill-rule:nonzero}
    .fil8 {fill:#EF495E;fill-rule:nonzero}
    .fil19 {fill:#EF6F51;fill-rule:nonzero}
    .fil17 {fill:#EE7639;fill-rule:nonzero}
    .fil18 {fill:#D15640;fill-rule:nonzero}
    .fil20 {fill:#823736;fill-rule:nonzero}
    .fil2 {fill:#82CEC2;fill-rule:nonzero}
    .fil14 {fill:#654742;fill-rule:nonzero}
    .fil7 {fill:#2C2A2C;fill-rule:nonzero}
    .fil5 {fill:#573C69;fill-rule:nonzero}
    .fil11 {fill:#1E78BD;fill-rule:nonzero}
    .fil13 {fill:#4457A4;fill-rule:nonzero}
    .fil4 {fill:#00ACA5;fill-rule:nonzero}
    .fil12 {fill:#1B68B1;fill-rule:nonzero}
    .fil3 {fill:#22697B;fill-rule:nonzero}
   ]]>
  </style>
 </defs>
 <g id="Layer_x0020_1">
  <metadata id="CorelCorpID_0Corel-Layer"/>
  <rect class="fil0" x="5" y="3.35" width="16576" height="15673" rx="1085.56" ry="1000.36"/>
  <g id="_2629954912976">
   <path class="fil1" d="M3346.8 1242.73c-2281.51,1857.13 765.77,4800.43 -108.37,6035.78 -874.12,1235.4 -3182.14,4784.9 -419.1,6428.64 1970.15,1172.06 4174.19,-1013.42 6424.7,-470.89 2250.47,542.53 5463.4,1516.95 6065.59,-1159.51 53.51,-237.83 78.91,-463.83 82.06,-679.56l0 -86.57c-29.05,-2154.55 -2313.62,-3250.82 -1717.36,-4456.46 663.08,-1340.88 2067.59,-3950.27 46.53,-5256.29 -2021.03,-1306.05 -3452.04,1001.58 -5165.58,326.99 -1713.48,-674.61 -3521.22,-2055.53 -5208.47,-682.13z"/>
   <path class="fil2" d="M13992.45 14251.24c0,465.35 -2568.47,842.6 -5736.9,842.6 -3168.44,0 -5736.94,-377.25 -5736.94,-842.6 0,-465.39 2568.5,-842.62 5736.94,-842.62 3168.43,0 5736.9,377.23 5736.9,842.62z"/>
   <path class="fil3" d="M10270.15 13019.8c0,0 1195.32,-2018.35 4121.3,-1458.07 0,0 -1494.16,2965.91 -4121.3,1458.07z"/>
   <path class="fil4" d="M10048.29 13042.16c0,0 1959.58,-1289.37 4343.16,497.76 0,0 -2643.83,2009.79 -4343.16,-497.76z"/>
   <path class="fil4" d="M2921.6 9782.46c0.78,0.74 1.43,1.45 2.21,2.19 793.61,778.79 1411.12,1200.68 1820.58,1425.29 -540.97,30.97 -927.43,171.2 -945.63,372.88 -22.7,251.65 535.3,511.82 1283.02,614.76 -349.8,140.19 -569.18,315.44 -540.24,460.37 43.16,216.15 622.19,282.75 1293.32,148.73 118.71,-23.71 232.23,-52.17 338.66,-84.07l0 0.04c179.28,-44.84 335.04,-109.92 470.5,-187.54 98.6,-52.59 178.51,-107.63 235.02,-162.38 105.55,-86.64 194.35,-180.26 268.5,-274.68 87.91,-83.98 176,-233 252.94,-425.48 80.97,-185.91 105.94,-319.97 105.94,-319.97l-0.03 0c28.4,-104.35 53.41,-215.23 73.83,-330.9 118.89,-673.95 39.34,-1251.34 -177.76,-1289.65 -182,-32.1 -402.87,325.12 -539.61,838.66 -10.72,-47.13 -22.26,-94.65 -34.71,-142.56 -216.89,-833.44 -610.31,-1452.42 -878.77,-1382.61 -142.91,37.22 -221.58,262.22 -231.18,590.27 -258.51,-241.05 -558.2,-484.86 -889.23,-718.01 -1310.72,-923.11 -2614.31,-1329.19 -2911.66,-906.99 -227.8,323.5 201.68,1039.35 1004.3,1771.65z"/>
   <path class="fil5" d="M7083.69 12505.94c-86.22,-101.71 -171.2,-204.4 -258.34,-305.22 -346.22,-405.17 -701.18,-803.24 -1076.57,-1181.99 -184.89,-192.29 -382.1,-371.89 -574.68,-556.47l-299.36 -265.32c-50.2,-43.92 -99.21,-89.22 -150.39,-131.94l-154.56 -127.04c-103.21,-84.42 -204.83,-171.02 -309.44,-253.78l-318.67 -242.26c-53.4,-40 -105.62,-81.7 -160.03,-120.33l-164.55 -113.98 -329.23 -228.18 4.55 -7.09 334.2 221.37 167.2 110.74c55.31,37.53 108.41,78.14 162.74,117.05l324.39 236.01c106.55,80.75 210.17,165.31 315.45,247.82l157.02 124.96c52,42.08 101.83,86.67 152.88,129.92l304.49 261.48c196.08,182 396.88,359.24 585.44,549.24 383.15,373.59 754.06,761.3 1093.61,1175.67 84.56,103.78 166.93,209.34 250.47,313.91 81.03,106.56 163.87,211.73 241.97,320.42 78.18,108.62 156.42,217.14 231.92,327.59l221.82 332.67 -5.18 6.63c-168.84,-210.72 -326.68,-423.61 -495.16,-631.23l-251.99 -310.65z"/>
   <path class="fil6" d="M13634.77 8000.69c-88.51,-16.13 -191.1,140.37 -229.13,349.46 -38.03,209.12 -43.56,647.1 44.95,663.18 88.54,16.09 237.56,-395.78 275.62,-604.87 38.03,-209.13 -2.93,-391.69 -91.44,-407.77zm-2317.57 2473.21c-87.6,20.57 -119.24,204.93 -70.66,411.84 48.54,206.97 218.19,610.76 305.79,590.23 87.59,-20.57 59.93,-457.73 11.39,-664.63 -48.54,-206.91 -158.93,-358 -246.52,-337.44zm488.77 -704.49c-89.32,10.76 -141.07,190.57 -115.6,401.6 25.47,211 149.65,631.01 238.97,620.25 89.32,-10.79 109.96,-448.31 84.49,-659.34 -25.47,-210.99 -118.53,-373.31 -207.86,-362.51zm588.44 -620.04c-89.96,-2.65 -167.89,167.46 -174.14,379.9 -6.2,212.48 54.05,646.29 144.01,648.94 89.92,2.64 175.47,-426.97 181.68,-639.38 6.21,-212.48 -61.67,-386.82 -151.55,-389.46zm637.96 -580.04c-88.51,-16.09 -191.1,140.4 -229.13,349.46 -38.06,209.13 -43.57,647.1 44.94,663.22 88.55,16.09 237.56,-395.78 275.59,-604.87 38.07,-209.13 -2.89,-391.73 -91.4,-407.81zm-478.83 3188.93c7.52,-89.64 -158.08,-176.77 -369.85,-194.55 -211.81,-17.78 -648.3,18.77 -655.81,108.41 -7.55,89.67 416.77,198.46 628.58,216.24 211.73,17.82 389.53,-40.46 397.08,-130.1zm313.48 -719.21c1.84,-89.95 -168.98,-166.33 -381.46,-170.63 -212.51,-4.27 -645.79,59.9 -647.63,149.86 -1.8,89.95 428.56,171.59 641.04,175.89 212.51,4.3 386.22,-65.16 388.05,-155.12zm345.3 -725.02c-10.58,-89.33 -190.25,-141.43 -401.32,-116.46 -211.07,25.05 -631.37,148.35 -620.78,237.71 10.58,89.32 448.1,110.87 659.13,85.86 211.1,-25.05 373.59,-117.76 362.97,-207.11zm433.85 -558.91c-7.66,-89.64 -185.56,-147.6 -397.3,-129.47 -211.77,18.1 -635.88,127.57 -628.23,217.24 7.66,89.64 444.22,125.45 655.99,107.39 211.74,-18.14 377.23,-105.48 369.54,-195.16zm601.59 -586.63c-7.69,-89.65 -185.56,-147.64 -397.33,-129.51 -211.78,18.06 -635.89,127.57 -628.23,217.21 7.65,89.64 444.22,125.51 655.99,107.38 211.77,-18.1 377.26,-105.44 369.57,-195.08zm266.8 -570.9c-188.52,98.03 -605.4,232.58 -646.92,152.75 -41.49,-79.84 308.08,-343.75 496.64,-441.79 188.56,-98.07 375.07,-112.85 416.6,-33.02 41.52,79.84 -77.72,224.02 -266.32,322.06z"/>
   <path class="fil7" d="M14008.26 8680.77c-4.38,-8.68 -15.07,-12.21 -23.67,-7.87 -1508.27,754.52 -2468.6,2874.58 -2726.98,3506.34 -7.65,18.76 -12.27,30.15 -13.89,33.4 -4.66,8.18 -2.05,18.7 5.99,23.7 2.93,1.81 6.14,2.69 9.35,2.69 5.86,0 11.64,-2.97 14.99,-8.32 1.8,-2.94 3.71,-7.53 16.23,-38.11 257.21,-628.89 1212.82,-2739.07 2710.08,-3488.16 8.71,-4.37 12.24,-14.96 7.9,-23.67z"/>
   <path class="fil6" d="M1892.08 12752.14c8.3,89.6 186.56,146.38 398.22,126.8 211.62,-19.56 635,-131.95 626.7,-221.52 -8.28,-89.6 -445.07,-122.49 -656.7,-102.9 -211.63,19.58 -376.5,108.05 -368.22,197.62zm3005.02 1567.74c43.34,78.81 229.48,59.77 415.72,-42.61 186.26,-102.35 529.66,-374.3 486.3,-453.14 -43.32,-78.85 -456.95,65.27 -643.22,167.6 -186.26,102.42 -302.14,249.31 -258.8,328.15zm-809.91 -281.48c34.39,83.12 221.47,84.67 417.89,3.44 196.38,-81.26 567.63,-313.7 533.24,-396.88 -34.39,-83.12 -461.38,14.56 -657.79,95.82 -196.4,81.23 -327.72,214.47 -293.34,297.62zm-755.35 -400.15c21.64,87.31 206.42,116.66 412.71,65.58 206.31,-51.08 608.01,-225.71 586.39,-313.05 -21.64,-87.31 -458.41,-54.3 -664.72,-3.21 -206.3,51.11 -356.01,163.34 -334.38,250.68zm-730.14 -458.68c8.3,89.6 186.58,146.36 398.2,126.82 211.64,-19.58 635.02,-131.97 626.72,-221.55 -8.27,-89.56 -445.07,-122.44 -656.7,-102.9 -211.63,19.59 -376.49,108.06 -368.22,197.63zm3200.31 -395.68c-88.37,16.87 -127.77,199.75 -88.02,408.52 39.8,208.77 192.3,619.4 280.67,602.55 88.37,-16.83 79.2,-454.74 39.41,-663.51 -39.79,-208.8 -143.69,-364.43 -232.06,-347.56zm-776.98 -108.73c-87.14,22.44 -114.84,207.47 -61.86,413.32 52.97,205.85 231.22,605.94 318.39,583.49 87.1,-22.39 50.13,-458.85 -2.86,-664.7 -52.95,-205.85 -166.54,-354.5 -253.67,-332.11zm-791.14 -137.76c-83.22,34.19 -85.15,221.3 -4.32,417.87 80.82,196.57 312.52,568.3 395.71,534.07 83.22,-34.22 -13.57,-461.4 -94.39,-657.96 -80.82,-196.61 -213.78,-328.2 -297,-293.98zm-654.92 -267.72c-84.3,31.47 -92.33,218.4 -17.99,417.51 74.35,199.12 293.76,578.2 378.07,546.74 84.28,-31.47 1.52,-461.61 -72.86,-660.71 -74.34,-199.12 -202.94,-335 -287.22,-303.54zm-726.75 -421.78c-84.28,31.47 -92.34,218.4 -17.99,417.52 74.35,199.1 293.78,578.2 378.05,546.73 84.29,-31.47 1.52,-461.61 -72.82,-660.72 -74.36,-199.1 -202.96,-334.99 -287.24,-303.53zm-621.58 -103.61c145.11,155.3 386.71,520.63 320.97,582.05 -65.73,61.45 -413.9,-204.34 -559.03,-359.58 -145.1,-155.29 -209.46,-331.02 -143.73,-392.44 65.75,-61.41 236.67,14.68 381.79,169.97z"/>
   <path class="fil7" d="M6600.95 13889.4c-3.32,-0.96 -8.26,-1.59 -41.24,-5.43 -674.9,-78.83 -2964.27,-432.31 -4087.97,-1673.09 -6.54,-7.2 -17.71,-7.76 -24.9,-1.2 -7.23,6.49 -7.78,17.66 -1.24,24.9 1131.95,1249.85 3432.05,1605.29 4110.02,1684.41 20.21,2.36 32.45,3.74 36.01,4.44 1.45,0.36 2.9,0.5 4.31,0.5 7.65,0 14.67,-4.97 16.93,-12.66 2.75,-9.35 -2.61,-19.16 -11.92,-21.87z"/>
   <path class="fil8" d="M4015.64 2001.17c0,0 657.11,109.75 1725.55,-487.12 0,0 -81.17,776.29 -665.79,941.32 -584.61,165.07 -1059.76,-454.2 -1059.76,-454.2z"/>
   <path class="fil8" d="M4590.76 907.1c-105.57,47.66 -166.84,183.73 -132.73,294.75 11.01,35.8 42.67,55.1 76.54,46.56 33.58,-8.43 51.95,-37.78 46.27,-73.87 -1.11,-7.12 -2.08,-14.25 -2.97,-21.38 -8.96,-70.91 32.79,-128.09 104.45,-143.08 60.5,-12.63 125.61,28.29 143.81,90.38 18.59,63.36 -17.95,132.61 -82.47,156.17 -46.04,16.83 -60.18,44.7 -46.81,92.54 8.49,30.37 16.66,60.82 26.03,90.91 2.09,6.74 2.77,12.13 1.13,16.68 34.28,1.31 78.46,-6.52 130.33,-35.34 -0.79,-0.39 -1.47,-0.78 -1.65,-1.31 -7.03,-19.37 -14.68,-39.02 -17.34,-59.2 -0.85,-6.45 11.7,-16.08 19.75,-22.12 80.64,-60.46 120.45,-168.02 95.84,-260.56 -43.52,-163.54 -205.99,-240.73 -360.18,-171.13z"/>
   <path class="fil9" d="M6237.41 1896.5c0.78,28.43 -18.31,39.55 -43.29,46.57 -390.1,109.75 -780.06,219.95 -1170.05,330.06 -389.11,109.82 -778.23,219.67 -1167.36,329.49 -36.98,10.44 -59.31,1.48 -67.87,-26.56 -6.79,-22.19 3.67,-37.93 18.28,-52.78 104.57,-106.29 208.91,-212.83 313.51,-319.12 177.12,-179.95 354.38,-359.76 531.62,-539.65 102.43,-103.96 224.93,-140.68 366.77,-105.72 391.73,96.55 783.17,194.31 1174.86,291.07 26.1,6.42 42.79,19.48 43.53,46.64zm-29.17 -174.41c-374.48,-91.62 -748.49,-184.96 -1122.58,-278.17 -71.84,-17.92 -143.72,-31.75 -218.21,-21.06 -3.88,0.57 -10.15,0 -13.11,-1.44 -51.87,28.82 -96.05,36.65 -130.33,35.34 -1.59,4.34 -5.36,7.87 -12.32,10.87 -56.96,24.41 -104.82,61.88 -148.01,105.76 -278.59,283.14 -557.31,566.1 -835.54,849.6 -18.7,19.01 -38.09,39.51 -49.64,63.04 -32.62,66.5 -26.32,131.87 22.45,188.56 49.39,57.43 113.64,73.13 185.83,52.81 390.88,-110.03 781.62,-220.49 1172.39,-330.84 252.16,-71.19 504.33,-142.38 756.46,-213.57 139.52,-39.4 279.15,-78.31 418.5,-118.36 100.22,-28.75 155.47,-129.64 121.99,-223.55 -24.69,-69.22 -78.28,-101.95 -147.88,-118.99z"/>
   <path class="fil6" d="M6479.56 7429.29c1513.38,-427.25 1871.98,-833.89 1871.98,-833.89l-1463.15 -3343.63 782.39 283.07 528.89 -1264.08 -1306.2 -623.88 -1152.28 -132.83c-266.1,517.99 -742.98,667.88 -742.98,667.88 0,0 -484.89,121.61 -982.57,-180.76l-912.7 715.82 -787.11 1214.79 1111.83 800.91 518.84 -650.41 501.35 3615.12c0,0 518.32,159.11 2031.71,-268.11z"/>
   <path class="fil7" d="M6812.26 1702.68c-4.44,7.98 -441.89,805.64 -37.64,1479.13l30.23 -18.17c-393.56,-655.74 33.83,-1435.94 38.21,-1443.74l-30.8 -17.22z"/>
   <path class="fil7" d="M3971.64 3963.5l35.28 -0.36c-7.65,-785.42 -797.64,-1236.62 -805.6,-1241.1l-17.23 30.79c7.8,4.38 780.11,445.42 787.55,1210.67z"/>
   <path class="fil8" d="M7670.78 3534.84c0,0 38.98,-835.63 528.89,-1264.08 0,0 -121.71,689.72 -528.89,1264.08z"/>
   <path class="fil8" d="M3427.66 4732.69c0,0 -470.22,-691.9 -1111.83,-800.91 0,0 464.4,524.26 1111.83,800.91z"/>
   <path class="fil10" d="M5997.56 3449.89c-515.98,155.82 -381.11,922.02 -381.11,922.02 0,0 -285.71,-723.59 -807,-586.64 -521.26,136.99 -460.75,1433.2 1352.68,2519.65 977.62,-1874.38 351.36,-3010.89 -164.57,-2855.03z"/>
   <polygon class="fil8" points="7317.51,4852.85 4418.01,5671.4 4612.92,5259.39 4224.14,4984.65 7123.62,4166.13 6899.86,4613.77 "/>
   <path class="fil10" d="M4898.73 5355.05l-85.66 -309.76 106.67 -29.52c24.06,-6.64 42.87,-10.3 56.35,-10.85 18.88,-0.82 36.09,2.4 51.55,9.65 20.19,9.3 37.27,23.52 51.35,42.75 14,19.3 24.91,42.71 32.51,70.29 6.49,23.54 9.54,45.12 9.09,64.81 -0.45,19.69 -3.36,36.68 -8.67,50.96 -5.31,14.28 -12.09,26.23 -20.44,35.93 -8.35,9.62 -19.24,18.27 -32.68,25.78 -13.43,7.5 -29.56,13.8 -48.3,19.04l-111.77 30.92zm30.89 -47.95l66.13 -18.23c20.46,-5.67 35.91,-11.98 46.5,-19.05 10.59,-6.99 18.33,-14.9 23.31,-23.71 7.09,-12.41 10.97,-27.59 11.86,-45.48 0.91,-17.89 -1.86,-38.57 -8.35,-61.96 -8.93,-32.39 -21.19,-55.8 -36.63,-70.24 -15.44,-14.44 -31.58,-22.6 -48.42,-24.23 -12.2,-1.26 -30.41,1.59 -54.77,8.31l-65.07 17.99 65.44 236.6z"/>
   <path id="1" class="fil10" d="M5156.78 5119.46c-14.17,-51.42 -11.52,-95.45 8.03,-132.2 19.54,-36.69 51.17,-61.12 94.79,-73.22 28.64,-7.9 56.27,-8.16 83.05,-0.86 26.7,7.29 49.49,21.47 68.27,42.59 18.86,21.12 32.53,47.15 41.08,78.19 8.71,31.41 10.17,61.22 4.36,89.5 -5.81,28.36 -18.64,52.04 -38.34,71.28 -19.69,19.16 -43.03,32.47 -69.95,39.92 -29.09,8.05 -57.09,8.23 -84.02,0.48 -26.85,-7.75 -49.55,-22.14 -68.11,-43.27 -18.56,-21.11 -31.64,-45.2 -39.16,-72.41zm42.43 -11.06c10.32,37.34 28.56,64 54.56,79.9 25.99,15.91 54.12,19.7 84.41,11.35 30.88,-8.56 53.28,-26.44 67.16,-53.63 13.97,-27.2 15.38,-60.74 4.39,-100.63 -7.01,-25.18 -17.33,-46.04 -31.05,-62.5 -13.78,-16.46 -30.21,-27.53 -49.5,-33.38 -19.3,-5.76 -39.14,-5.85 -59.54,-0.23 -29.09,8.03 -51.24,24.94 -66.62,50.63 -15.46,25.7 -16.65,61.86 -3.81,108.49z"/>
   <polygon id="2" class="fil10" points="5546.92,5172.03 5461.18,4862.35 5503.23,4850.68 5733.21,5048.87 5665.91,4805.67 5705.2,4794.83 5790.94,5104.52 5748.88,5116.17 5518.84,4917.77 5586.2,5161.18 "/>
   <path id="3" class="fil10" d="M5825.59 5093.18l33.23 -342.6 44.16 -12.25 212.43 274.64 -46.62 12.91 -62.11 -83.74 -129.54 35.78 -8.06 103.23 -43.49 12.03zm54.17 -151.86l104.95 -29.08 -55.99 -76.83c-17.13,-23.36 -30.38,-42.73 -39.75,-58.2 1.56,20.98 1.4,42.24 -0.34,63.8l-8.87 100.31z"/>
   <polygon id="4" class="fil10" points="6190.42,4990.82 6114.79,4717.65 6012.77,4745.9 6002.66,4709.32 6248.17,4641.43 6258.29,4677.95 6155.81,4706.28 6231.36,4979.53 "/>
   <polygon id="5" class="fil10" points="6382.65,4936.19 6296.99,4626.42 6338,4615.06 6423.66,4924.82 "/>
   <path id="6" class="fil10" d="M6441.6 4756.75c-14.16,-51.43 -11.52,-95.45 8.03,-132.2 19.54,-36.69 51.17,-61.13 94.8,-73.22 28.64,-7.9 56.27,-8.16 83.05,-0.86 26.69,7.29 49.48,21.47 68.27,42.59 18.85,21.12 32.52,47.15 41.07,78.19 8.72,31.41 10.17,61.22 4.36,89.5 -5.81,28.36 -18.64,52.04 -38.33,71.28 -19.7,19.16 -43.04,32.47 -69.96,39.92 -29.08,8.05 -57.09,8.23 -84.02,0.48 -26.84,-7.75 -49.55,-22.14 -68.1,-43.27 -18.57,-21.11 -31.64,-45.2 -39.17,-72.41zm42.43 -11.06c10.32,37.34 28.56,63.99 54.56,79.9 25.99,15.91 54.13,19.69 84.41,11.35 30.89,-8.56 53.28,-26.44 67.16,-53.63 13.97,-27.2 15.38,-60.74 4.39,-100.63 -7,-25.18 -17.33,-46.04 -31.05,-62.5 -13.78,-16.46 -30.2,-27.53 -49.5,-33.38 -19.3,-5.76 -39.14,-5.85 -59.53,-0.23 -29.09,8.03 -51.24,24.93 -66.63,50.63 -15.45,25.7 -16.65,61.86 -3.81,108.49z"/>
   <polygon id="7" class="fil10" points="6831.75,4809.32 6746.01,4499.64 6788.06,4487.97 7018.03,4686.16 6950.74,4442.96 6990.02,4432.12 7075.76,4741.81 7033.71,4753.46 6803.66,4555.06 6871.03,4798.47 "/>
   <path class="fil11" d="M11674.67 1362.11c49.81,0 2739.21,972.33 2739.21,972.33l-1905.95 5385.96 -965.66 -530.75c0,0 1367.26,-3569.76 965.66,-3785.59 -401.6,-215.79 -2136.46,3502.87 -2136.46,3502.87l-838.37 -481.43 2141.57 -5063.39z"/>
   <path class="fil12" d="M11208.58 2464.12c451.13,-119.7 812.69,-649.57 975.85,-928.69 -291.74,-102.87 -496.36,-173.32 -509.76,-173.32l-466.09 1102.01z"/>
   <path class="fil12" d="M13996.9 2183.94c-77.93,278.66 -150.57,744.29 72.11,1125.01l344.87 -974.51c0,0 -166.33,-60.15 -416.98,-150.5z"/>
   <path class="fil12" d="M11626.27 7088.9c12.8,1.16 1039.39,469.83 1003.76,551.71 -35.56,81.87 -167.29,505.46 -334.58,459.17 -167.29,-46.28 -847.16,-405.8 -857.81,-503.7 -10.69,-97.86 71.19,-517.87 188.63,-507.18z"/>
   <path class="fil12" d="M9653.11 6137c12.14,1.12 989.26,449.79 955.39,528.17 -33.9,78.36 -159.24,483.84 -318.48,439.57 -159.21,-44.31 -806.31,-388.52 -816.47,-482.18 -10.16,-93.7 67.73,-495.76 179.56,-485.56z"/>
   <path class="fil10" d="M10177.37 7061.17c9.42,4.16 18.52,8.11 27.27,11.82l234.57 -544.73c-8.4,-4.9 -17.18,-9.95 -25.97,-14.99l-235.87 547.9z"/>
   <path class="fil10" d="M10519.18 6577.69l-251.92 519.74c8.29,2.9 16.09,5.44 22.76,7.31 2.08,0.56 4.12,0.77 6.2,1.16l247.83 -511.28c-7.69,-5.47 -16.02,-11.11 -24.87,-16.93z"/>
   <path class="fil10" d="M12547.79 7556.82l-252.59 542.89c0.08,0.04 0.18,0.07 0.25,0.07 10.69,2.96 21.2,3.95 31.54,3.28l245.96 -528.64c-7.73,-5.68 -16.09,-11.53 -25.16,-17.6z"/>
   <path class="fil10" d="M12184.71 8057.66c9.71,4.2 18.95,8.15 27.87,11.85l238.83 -572.38c-8.57,-4.97 -17.49,-10.05 -26.49,-15.17l-240.21 575.7z"/>
   <path class="fil13" d="M12676.98 2118.5c0,41.84 -33.94,75.75 -75.74,75.75 -41.84,0 -75.78,-33.91 -75.78,-75.75 0,-41.84 33.94,-75.74 75.78,-75.74 41.8,0 75.74,33.9 75.74,75.74z"/>
   <path class="fil13" d="M12916.94 5605.08l26.39 -23.43c-149.97,-168.7 -393.42,-291.5 -403.72,-296.65l-15.77 31.54c2.43,1.24 247.76,125.02 393.1,288.54z"/>
   <path class="fil13" d="M12553.68 5608.43c11.86,7.2 291.58,176.67 412.86,183.09l1.87 -35.24c-112.47,-5.93 -393.56,-176.29 -396.38,-177.98l-18.35 30.13z"/>
   <path class="fil13" d="M10648.33 4777.71c6.39,6.49 158.08,159.7 335.18,203.97l8.57 -34.22c-167.32,-41.84 -317.04,-192.93 -318.52,-194.45l-25.23 24.7z"/>
   <path class="fil13" d="M10515.86 5012.62c2.26,0.67 228.78,68.51 331.02,140.69l20.35 -28.82c-107,-75.5 -331.82,-142.88 -341.31,-145.7l-10.06 33.83z"/>
   <path class="fil13" d="M12643.08 3431.23l-4.87 34.92c17.99,2.54 303.14,41.88 563.32,41.88 135.67,0 264.65,-10.73 345.26,-42.97l-13.09 -32.74c-226.45,90.59 -883.99,-0.18 -890.62,-1.09z"/>
   <path class="fil13" d="M12631.79 3560.41c16.55,9.63 408.76,235.8 702.45,245.18l1.09 -35.24c-284.69,-9.1 -681.84,-238.12 -685.83,-240.42l-17.71 30.48z"/>
   <path class="fil13" d="M11606.62 2805.33l-29.92 18.76c112.75,179.53 630.49,533.9 652.46,548.89l19.9 -29.14c-5.33,-3.63 -533.61,-365.19 -642.44,-538.51z"/>
   <path class="fil13" d="M11456.09 3249.69l5.5 34.82c354.33,-56.2 709.58,176.53 713.11,178.85l19.54 -29.38c-14.96,-9.92 -370.35,-242.75 -738.15,-184.29z"/>
   <path class="fil13" d="M12361.56 1598.09c-11.36,-4.03 -22.82,-8.08 -34.01,-12.07 -15.87,112.26 -50.23,312.17 -103.57,402.06l30.3 18.03c55.92,-94.16 90.81,-292.28 107.28,-408.02z"/>
   <path class="fil13" d="M13275.68 2485.68l35.21 2.32c5.75,-86.32 145.41,-340.67 219.32,-472.05 -11.18,-4.02 -22.37,-8.04 -33.62,-12.06 -109.64,195.51 -215.27,396.87 -220.91,481.79z"/>
   <path class="fil13" d="M12302.26 2034.75l31.43 16.02c61.28,-120.33 107.42,-285.96 137.06,-413.91 -11.29,-4.03 -22.55,-8.05 -33.69,-12 -29.35,127.04 -75.04,292.63 -134.8,409.89z"/>
   <path class="fil13" d="M13665.46 2064.6c-11.5,-4.13 -23.07,-8.33 -34.71,-12.49 -80.33,109.75 -200.8,287.87 -217.87,390.31l34.78 5.83c16.23,-97.27 139.45,-277.08 217.8,-383.65z"/>
   <path class="fil13" d="M12879.48 1782.59c-11.72,-4.16 -23.36,-8.33 -35.07,-12.52 -5.29,259.46 -26.35,776.28 -175.54,984.6l28.64 20.53c152.97,-213.47 176.14,-726.23 181.97,-992.61z"/>
   <polygon class="fil14" points="11455.17,8496.27 7047.53,8496.27 5379.1,9728.91 10284.79,9728.91 "/>
   <path class="fil3" d="M10595.91 9243.45l-3229.36 0c-19.55,0 -38.53,6.25 -54.23,17.85l-1067.18 788.42c-70.81,52.32 -33.8,164.68 54.22,164.68l3547.92 0c25.01,0 48.97,-10.26 66.18,-28.43l748.63 -788.43c55.21,-58.13 14.01,-154.09 -66.18,-154.09z"/>
   <path class="fil4" d="M10595.91 9026.77l-3229.36 0c-19.55,0 -38.53,6.28 -54.23,17.86l-1067.18 788.42c-70.81,52.35 -33.8,164.68 54.22,164.68l3547.92 0c25.01,0 48.97,-10.27 66.18,-28.4l748.63 -788.46c55.21,-58.14 14.01,-154.1 -66.18,-154.1z"/>
   <path class="fil6" d="M10595.91 8819.31l-3229.36 0c-19.55,0 -38.53,6.24 -54.23,17.85l-1067.18 788.46c-70.81,52.31 -33.8,164.67 54.22,164.67l3547.92 0c25.01,0 48.97,-10.3 66.18,-28.43l748.63 -788.46c55.21,-58.14 14.01,-154.09 -66.18,-154.09z"/>
   <path class="fil15" d="M10595.91 8608.59l-3229.36 0c-19.55,0 -38.53,6.25 -54.23,17.85l-1067.18 788.46c-70.81,52.28 -33.8,164.64 54.22,164.64l3547.92 0c25.01,0 48.97,-10.26 66.18,-28.43l748.63 -788.42c55.21,-58.14 14.01,-154.1 -66.18,-154.1z"/>
   <path class="fil16" d="M10229.06 8882.17c0,-0.35 0.17,-0.74 0.17,-1.16 0,-138.79 -748.84,-251.32 -1672.55,-251.32 -923.75,0 -1672.59,112.53 -1672.59,251.32 0,0.42 0.17,0.81 0.21,1.16 -0.04,0.39 -0.21,0.81 -0.21,1.2 0,0.35 0.17,0.74 0.21,1.16 -0.04,0.39 -0.21,0.75 -0.21,1.17 0,0.39 0.17,0.74 0.21,1.13 -0.04,0.42 -0.21,0.81 -0.21,1.16 0,0.43 0.17,0.81 0.21,1.2 -0.04,0.35 -0.21,0.78 -0.21,1.17 0,0.38 0.17,0.74 0.21,1.16 -0.04,0.39 -0.21,0.78 -0.21,1.16 0,0.39 0.17,0.78 0.21,1.13 -0.04,0.43 -0.21,0.81 -0.21,1.2 0,0.39 0.17,0.78 0.21,1.17 -0.04,0.38 -0.21,0.77 -0.21,1.16 0,0.39 0.17,0.81 0.21,1.17 -0.04,0.38 -0.21,0.77 -0.21,1.16 0,0.39 0.17,0.78 0.21,1.16 -0.04,0.39 -0.21,0.78 -0.21,1.17 0,0.42 0.17,0.77 0.21,1.16 -0.04,0.39 -0.21,0.81 -0.21,1.17 0,0.38 0.17,0.81 0.21,1.2 -0.04,0.35 -0.21,0.74 -0.21,1.16 0,0.35 0.17,0.74 0.21,1.16 -0.04,0.39 -0.21,0.74 -0.21,1.13 0,0.43 0.17,0.81 0.21,1.17 -0.04,0.38 -0.21,0.81 -0.21,1.2 0,0.35 0.17,0.77 0.21,1.16 -0.04,0.35 -0.21,0.74 -0.21,1.16 0,0.39 0.17,0.75 0.21,1.17 -0.04,0.39 -0.21,0.77 -0.21,1.13 0,0.42 0.17,0.81 0.21,1.2 -0.04,0.38 -0.21,0.77 -0.21,1.16 0,0.39 0.17,0.78 0.21,1.17 -0.04,0.38 -0.21,0.77 -0.21,1.16 0,0.39 0.17,0.78 0.21,1.16 -0.04,0.39 -0.21,0.78 -0.21,1.17 0,0.39 0.17,0.77 0.21,1.16 -0.04,0.43 -0.21,0.78 -0.21,1.17 0,0.38 0.17,0.77 0.21,1.16 -0.04,0.39 -0.21,0.81 -0.21,1.16 0,0.39 0.17,0.78 0.21,1.2 -0.04,0.36 -0.21,0.74 -0.21,1.17 0,0.39 0.17,0.74 0.21,1.13 -0.04,0.42 -0.21,0.81 -0.21,1.16 0,0.39 0.17,0.81 0.21,1.17 -0.04,0.38 -0.21,0.81 -0.21,1.19 0,0.36 0.17,0.75 0.21,1.17 -0.04,0.39 -0.21,0.74 -0.21,1.16 0,0.39 0.17,0.78 0.21,1.13 -0.04,0.43 -0.21,0.81 -0.21,1.2 0,0.39 0.17,0.78 0.21,1.17 -0.04,0.35 -0.21,0.77 -0.21,1.16 0,0.39 0.17,0.74 0.21,1.16 -0.04,0.39 -0.21,0.78 -0.21,1.17 0,0.39 0.17,0.77 0.21,1.16 -0.04,0.39 -0.21,0.78 -0.21,1.17 0,0.38 0.17,0.77 0.21,1.16 -0.04,0.39 -0.21,0.78 -0.21,1.16 0,0.39 0.17,0.78 0.21,1.17 -0.04,0.39 -0.21,0.77 -0.21,1.2 0,0.35 0.17,0.74 0.21,1.13 -0.04,0.42 -0.21,0.77 -0.21,1.16 0,0.42 0.17,0.78 0.21,1.17 -0.04,0.38 -0.21,0.81 -0.21,1.16 0,0.39 0.17,0.78 0.21,1.2 -0.04,0.35 -0.21,0.74 -0.21,1.16 0,0.39 0.17,0.74 0.21,1.17 -0.04,0.39 -0.21,0.77 -0.21,1.13 0,0.42 0.17,0.81 0.21,1.16 -0.04,0.42 -0.21,0.81 -0.21,1.2 0,0.35 0.17,0.78 0.21,1.16 -0.04,0.39 -0.21,0.74 -0.21,1.17 0,0.39 0.17,0.77 0.21,1.16 -0.04,0.39 -0.21,0.78 -0.21,1.13 0,0.42 0.17,0.81 0.21,1.2 -0.04,0.39 -0.21,0.78 -0.21,1.16 0,0.39 0.17,0.78 0.21,1.17 -0.04,0.39 -0.21,0.78 -0.21,1.16 0,0.39 0.17,0.78 0.21,1.2 -0.04,0.36 -0.21,0.74 -0.21,1.13 0,0.39 0.17,0.78 0.21,1.17 -0.04,0.42 -0.21,0.77 -0.21,1.16 0,0.39 0.17,0.81 0.21,1.16 -0.04,0.39 -0.21,0.78 -0.21,1.2 0,0.36 0.17,0.74 0.21,1.17 -0.04,0.35 -0.21,0.74 -0.21,1.16 0,0.39 0.17,0.74 0.21,1.13 -0.04,0.42 -0.21,0.81 -0.21,1.16 0,0.39 0.17,0.82 0.21,1.2 -0.04,0.36 -0.21,0.78 -0.21,1.17 0,0.39 0.17,0.74 0.21,1.16 -0.04,0.39 -0.21,0.74 -0.21,1.17 0,0.38 0.17,0.77 0.21,1.13 -0.04,0.42 -0.21,0.81 -0.21,1.2 0,0.38 0.17,0.77 0.21,1.16 -0.04,0.39 -0.21,0.78 -0.21,1.16 0,0.39 0.17,0.78 0.21,1.17 -0.04,0.39 -0.21,0.77 -0.21,1.16 0,0.39 0.17,0.78 0.21,1.17 -0.04,0.38 -0.21,0.77 -0.21,1.16 0,0.42 0.17,0.78 0.21,1.16 -0.04,0.39 -0.21,0.82 -0.21,1.17 0,0.39 0.17,0.77 0.21,1.16 -0.04,0.39 -0.21,0.78 -0.21,1.2 0,0.35 0.17,0.74 0.21,1.13 -0.04,0.42 -0.21,0.78 -0.21,1.17 0,0.42 0.17,0.81 0.21,1.16 -0.04,0.39 -0.21,0.81 -0.21,1.2 0,0.35 0.17,0.74 0.21,1.16 -0.04,0.36 -0.21,0.74 -0.21,1.17 0,0.39 0.17,0.74 0.21,1.13 -0.04,0.42 -0.21,0.81 -0.21,1.16 0,0.42 0.17,0.81 0.21,1.2 -0.04,0.35 -0.21,0.78 -0.21,1.16 0,0.36 0.17,0.74 0.21,1.17 -0.04,0.39 -0.21,0.74 -0.21,1.16 0,0.39 0.17,0.78 0.21,1.13 -0.04,0.42 -0.21,0.81 -0.21,1.2 0,0.39 0.17,0.78 0.21,1.16 -0.04,0.39 -0.21,0.78 -0.21,1.17 0,0.39 0.17,0.77 0.21,1.16 -0.04,0.39 -0.21,0.78 -0.21,1.17 0,0.39 0.17,0.77 0.21,1.2 -0.04,0.35 -0.21,0.74 -0.21,1.13 0,0.42 0.17,0.77 0.21,1.16 -0.04,0.42 -0.21,0.78 -0.21,1.16 0,0.39 0.17,0.82 0.21,1.17 -0.04,0.39 -0.21,0.77 -0.21,1.2 0,0.35 0.17,0.74 0.21,1.16 -0.04,0.39 -0.21,0.74 -0.21,1.13 0,0.42 0.17,0.81 0.21,1.16 -0.04,0.43 -0.21,0.82 -0.21,1.17 0,0.39 0.17,0.81 0.21,1.2 -0.04,0.35 -0.21,0.74 -0.21,1.16 0,0.39 0.17,0.74 0.21,1.17 -0.04,0.38 -0.21,0.77 -0.21,1.13 0,0.42 0.17,0.81 0.21,1.19 -0.04,0.39 -0.21,0.78 -0.21,1.17 0,0.39 0.17,0.78 0.21,1.16 -0.04,0.39 -0.21,0.74 -0.21,1.17 0,0.39 0.17,0.77 0.21,1.16 -0.04,0.39 -0.21,0.78 -0.21,1.2 0,0.35 0.17,0.74 0.21,1.13 -0.04,0.39 -0.21,0.78 -0.21,1.16 0,0.43 0.17,0.78 0.21,1.17 -0.04,0.39 -0.21,0.81 -0.21,1.16 0,0.39 0.17,0.78 0.21,1.2 -0.04,0.35 -0.21,0.74 -0.21,1.17 0,0.38 0.17,0.74 0.21,1.12 -0.04,0.43 -0.21,0.78 -0.21,1.17 0,0.42 0.17,0.81 0.21,1.16 -0.04,0.39 -0.21,0.81 -0.21,1.2 0,0.36 0.17,0.74 0.21,1.17 -0.04,0.38 -0.21,0.74 -0.21,1.16 0,0.39 0.17,0.78 0.21,1.13 -0.04,0.42 -0.21,0.81 -0.21,1.16 0,0.43 0.17,0.82 0.21,1.2 -0.04,0.36 -0.21,0.78 -0.21,1.17 0,0.39 0.17,0.74 0.21,1.16 -0.04,0.39 -0.21,0.78 -0.21,1.17 0,0.38 0.17,0.77 0.21,1.13 -0.04,0.42 -0.21,0.81 -0.21,1.19 0,0.39 0.17,0.78 0.21,1.17 -0.04,0.39 -0.21,0.77 -0.21,1.16 0,0.39 0.17,0.78 0.21,1.17 -0.04,0.38 -0.21,0.77 -0.21,1.2 0,0.35 0.17,0.74 0.21,1.13 -0.04,0.38 -0.21,0.77 -0.21,1.16 0,0.42 0.17,0.78 0.21,1.16 -0.04,0.39 -0.21,0.81 -0.21,1.17 0,0.39 0.17,0.81 0.21,1.2 -0.04,0.35 -0.21,0.74 -0.21,1.16 0,0.35 0.17,0.74 0.21,1.17 -0.04,0.38 -0.21,0.74 -0.21,1.12 0,0.43 0.17,0.82 0.21,1.17 -0.04,0.42 -0.21,0.81 -0.21,1.2 0,0.35 0.17,0.77 0.21,1.16 -0.04,0.39 -0.21,0.74 -0.21,1.17 0,0.38 0.17,0.74 0.21,1.16 -0.04,0.39 -0.21,0.78 -0.21,1.13 0,0.42 0.17,0.81 0.21,1.2 -0.04,0.39 -0.21,0.77 -0.21,1.16 0,0.39 0.17,0.78 0.21,1.17 -0.04,0.39 -0.21,0.77 -0.21,1.16 0,0.39 0.17,0.78 0.21,1.17 -0.04,0.38 -0.21,0.77 -0.21,1.16 0,0.39 0.17,0.78 0.21,1.16 -0.04,0.43 -0.21,0.78 -0.21,1.17 0,0.39 0.17,0.81 0.21,1.16 -0.04,0.39 -0.21,0.81 -0.21,1.17 0,0.38 0.17,0.77 0.21,1.2 -0.04,0.35 -0.21,0.74 -0.21,1.16 0,0.39 0.17,0.74 0.21,1.13 -0.04,0.42 -0.21,0.81 -0.21,1.16 0,0.43 0.17,0.81 0.21,1.2 -0.04,0.36 -0.21,0.78 -0.21,1.17 0,0.35 0.17,0.74 0.21,1.16 -0.04,0.39 -0.21,0.74 -0.21,1.17 0,0.38 0.17,0.77 0.21,1.12 -0.04,0.43 -0.21,0.82 -0.21,1.2 0,0.39 0.17,0.78 0.21,1.17 -0.04,0.35 -0.21,0.77 -0.21,1.16 0,138.82 748.84,251.32 1672.59,251.32 923.71,0 1672.55,-112.5 1672.55,-251.32 0,-0.39 -0.17,-0.81 -0.17,-1.16 0,-0.39 0.17,-0.78 0.17,-1.17 0,-0.38 -0.17,-0.77 -0.17,-1.2 0,-0.35 0.17,-0.74 0.17,-1.12 0,-0.43 -0.17,-0.78 -0.17,-1.17 0,-0.42 0.17,-0.81 0.17,-1.16 0,-0.39 -0.17,-0.81 -0.17,-1.17 0,-0.39 0.17,-0.77 0.17,-1.2 0,-0.35 -0.17,-0.74 -0.17,-1.16 0,-0.39 0.17,-0.74 0.17,-1.13 0,-0.42 -0.17,-0.81 -0.17,-1.16 0,-0.43 0.17,-0.82 0.17,-1.2 0,-0.36 -0.17,-0.78 -0.17,-1.17 0,-0.35 0.17,-0.77 0.17,-1.16 0,-0.39 -0.17,-0.74 -0.17,-1.17 0,-0.38 0.17,-0.77 0.17,-1.16 0,-0.39 -0.17,-0.78 -0.17,-1.16 0,-0.39 0.17,-0.78 0.17,-1.17 0,-0.39 -0.17,-0.77 -0.17,-1.16 0,-0.39 0.17,-0.78 0.17,-1.17 0,-0.39 -0.17,-0.77 -0.17,-1.16 0,-0.39 0.17,-0.78 0.17,-1.2 0,-0.35 -0.17,-0.74 -0.17,-1.13 0,-0.42 0.17,-0.78 0.17,-1.16 0,-0.43 -0.17,-0.78 -0.17,-1.17 0,-0.39 0.17,-0.81 0.17,-1.16 0,-0.39 -0.17,-0.78 -0.17,-1.2 0,-0.35 0.17,-0.74 0.17,-1.17 0,-0.38 -0.17,-0.74 -0.17,-1.12 0,-0.43 0.17,-0.82 0.17,-1.17 0,-0.42 -0.17,-0.81 -0.17,-1.16 0,-0.39 0.17,-0.81 0.17,-1.2 0,-0.36 -0.17,-0.78 -0.17,-1.17 0,-0.38 0.17,-0.74 0.17,-1.16 0,-0.39 -0.17,-0.78 -0.17,-1.16 0,-0.39 0.17,-0.78 0.17,-1.13 0,-0.43 -0.17,-0.82 -0.17,-1.2 0,-0.39 0.17,-0.78 0.17,-1.17 0,-0.39 -0.17,-0.77 -0.17,-1.16 0,-0.39 0.17,-0.78 0.17,-1.17 0,-0.38 -0.17,-0.77 -0.17,-1.19 0,-0.36 0.17,-0.75 0.17,-1.13 0,-0.39 -0.17,-0.78 -0.17,-1.17 0,-0.42 0.17,-0.77 0.17,-1.16 0,-0.39 -0.17,-0.81 -0.17,-1.17 0,-0.38 0.17,-0.77 0.17,-1.2 0,-0.35 -0.17,-0.74 -0.17,-1.16 0,-0.35 0.17,-0.74 0.17,-1.13 0,-0.42 -0.17,-0.78 -0.17,-1.16 0,-0.43 0.17,-0.81 0.17,-1.17 0,-0.39 -0.17,-0.81 -0.17,-1.2 0,-0.35 0.17,-0.74 0.17,-1.16 0,-0.39 -0.17,-0.74 -0.17,-1.17 0,-0.38 0.17,-0.74 0.17,-1.12 0,-0.43 -0.17,-0.82 -0.17,-1.17 0,-0.42 0.17,-0.81 0.17,-1.2 0,-0.35 -0.17,-0.77 -0.17,-1.16 0,-0.39 0.17,-0.74 0.17,-1.17 0,-0.38 -0.17,-0.77 -0.17,-1.16 0,-0.39 0.17,-0.78 0.17,-1.13 0,-0.42 -0.17,-0.81 -0.17,-1.2 0,-0.39 0.17,-0.77 0.17,-1.16 0,-0.43 -0.17,-0.78 -0.17,-1.17 0,-0.38 0.17,-0.77 0.17,-1.16 0,-0.39 -0.17,-0.78 -0.17,-1.17 0,-0.38 0.17,-0.77 0.17,-1.19 0,-0.36 -0.17,-0.75 -0.17,-1.13 0,-0.43 0.17,-0.78 0.17,-1.17 0,-0.42 -0.17,-0.81 -0.17,-1.16 0,-0.39 0.17,-0.81 0.17,-1.2 0,-0.35 -0.17,-0.74 -0.17,-1.17 0,-0.35 0.17,-0.74 0.17,-1.16 0,-0.39 -0.17,-0.74 -0.17,-1.13 0,-0.42 0.17,-0.81 0.17,-1.16 0,-0.43 -0.17,-0.81 -0.17,-1.2 0,-0.35 0.17,-0.78 0.17,-1.17 0,-0.38 -0.17,-0.74 -0.17,-1.16 0,-0.39 0.17,-0.74 0.17,-1.16 0,-0.39 -0.17,-0.78 -0.17,-1.13 0,-0.43 0.17,-0.81 0.17,-1.2 0,-0.39 -0.17,-0.78 -0.17,-1.17 0,-0.39 0.17,-0.77 0.17,-1.16 0,-0.39 -0.17,-0.78 -0.17,-1.17 0,-0.38 0.17,-0.77 0.17,-1.16 0,-0.39 -0.17,-0.78 -0.17,-1.2 0,-0.35 0.17,-0.74 0.17,-1.13 0,-0.42 -0.17,-0.77 -0.17,-1.16 0,-0.43 0.17,-0.81 0.17,-1.17 0,-0.38 -0.17,-0.81 -0.17,-1.16 0,-0.39 0.17,-0.78 0.17,-1.2 0,-0.35 -0.17,-0.74 -0.17,-1.16 0,-0.39 0.17,-0.74 0.17,-1.13 0,-0.43 -0.17,-0.81 -0.17,-1.17 0,-0.42 0.17,-0.81 0.17,-1.16 0,-0.39 -0.17,-0.81 -0.17,-1.2 0,-0.35 0.17,-0.74 0.17,-1.16 0,-0.39 -0.17,-0.75 -0.17,-1.17 0,-0.39 0.17,-0.78 0.17,-1.13 0,-0.42 -0.17,-0.81 -0.17,-1.2 0,-0.39 0.17,-0.77 0.17,-1.16 0,-0.35 -0.17,-0.78 -0.17,-1.17 0,-0.38 0.17,-0.74 0.17,-1.16 0,-0.39 -0.17,-0.78 -0.17,-1.16 0,-0.39 0.17,-0.78 0.17,-1.17 0,-0.39 -0.17,-0.77 -0.17,-1.16 0,-0.39 0.17,-0.78 0.17,-1.17 0,-0.38 -0.17,-0.77 -0.17,-1.16 0,-0.39 0.17,-0.78 0.17,-1.16 0,-0.39 -0.17,-0.78 -0.17,-1.2 0,-0.36 0.17,-0.75 0.17,-1.13 0,-0.43 -0.17,-0.78 -0.17,-1.17 0,-0.42 0.17,-0.77 0.17,-1.16 0,-0.39 -0.17,-0.81 -0.17,-1.17 0,-0.38 0.17,-0.81 0.17,-1.2 0,-0.35 -0.17,-0.74 -0.17,-1.16 0,-0.39 0.17,-0.74 0.17,-1.13 0,-0.42 -0.17,-0.81 -0.17,-1.16 0,-0.43 0.17,-0.81 0.17,-1.17 0,-0.42 -0.17,-0.81 -0.17,-1.2 0,-0.35 0.17,-0.77 0.17,-1.16 0,-0.39 -0.17,-0.74 -0.17,-1.16 0,-0.39 0.17,-0.78 0.17,-1.17 0,-0.39 -0.17,-0.77 -0.17,-1.13 0,-0.42 0.17,-0.81 0.17,-1.2 0,-0.38 -0.17,-0.77 -0.17,-1.16 0,-0.39 0.17,-0.78 0.17,-1.17 0,-0.38 -0.17,-0.77 -0.17,-1.16 0,-0.39 0.17,-0.78 0.17,-1.2 0,-0.35 -0.17,-0.74 -0.17,-1.13 0,-0.39 0.17,-0.77 0.17,-1.16 0,-0.43 -0.17,-0.78 -0.17,-1.17 0,-0.38 0.17,-0.81 0.17,-1.16 0,-0.39 -0.17,-0.78 -0.17,-1.2 0,-0.35 0.17,-0.74 0.17,-1.16 0,-0.36 -0.17,-0.74 -0.17,-1.13 0,-0.43 0.17,-0.78 0.17,-1.17 0,-0.42 -0.17,-0.81 -0.17,-1.16 0,-0.42 0.17,-0.81 0.17,-1.2 0,-0.35 -0.17,-0.78 -0.17,-1.16 0,-0.39 0.17,-0.75 0.17,-1.17 0,-0.39 -0.17,-0.74 -0.17,-1.16 0,-0.39 0.17,-0.78 0.17,-1.13 0,-0.43 -0.17,-0.81 -0.17,-1.2 0,-0.39 0.17,-0.78 0.17,-1.17 0,-0.38 -0.17,-0.77 -0.17,-1.16 0,-0.39 0.17,-0.78 0.17,-1.16 0,-0.39 -0.17,-0.78 -0.17,-1.17 0,-0.39 0.17,-0.77 0.17,-1.16 0,-0.39 -0.17,-0.78 -0.17,-1.17 0,-0.42 0.17,-0.77 0.17,-1.16 0,-0.39 -0.17,-0.81 -0.17,-1.16 0,-0.39 0.17,-0.78 0.17,-1.17 0,-0.39 -0.17,-0.77 -0.17,-1.2 0,-0.35 0.17,-0.74 0.17,-1.13 0,-0.42 -0.17,-0.77 -0.17,-1.16 0,-0.42 0.17,-0.81 0.17,-1.17 0,-0.38 -0.17,-0.81 -0.17,-1.19 0,-0.36 0.17,-0.78 0.17,-1.17 0,-0.35 -0.17,-0.74 -0.17,-1.16 0,-0.39 0.17,-0.74 0.17,-1.13 0,-0.43 -0.17,-0.81 -0.17,-1.17 0,-0.42 0.17,-0.81 0.17,-1.2 0,-0.35 -0.17,-0.77 -0.17,-1.16 0,-0.39 0.17,-0.78 0.17,-1.16 0,-0.39 -0.17,-0.74 -0.17,-1.17 0,-0.39 0.17,-0.77 0.17,-1.16 0,-0.39 -0.17,-0.78 -0.17,-1.17 0,-0.38 0.17,-0.77 0.17,-1.16 0,-0.39 -0.17,-0.78 -0.17,-1.16 0,-0.39 0.17,-0.78 0.17,-1.17 0,-0.39 -0.17,-0.78 -0.17,-1.16 0,-0.39 0.17,-0.78 0.17,-1.2 0,-0.36 -0.17,-0.74 -0.17,-1.13 0,-0.42 0.17,-0.78 0.17,-1.17 0,-0.42 -0.17,-0.81 -0.17,-1.16 0,-0.39 0.17,-0.81 0.17,-1.16 0,-0.39 -0.17,-0.82 -0.17,-1.2 0,-0.36 0.17,-0.74 0.17,-1.17 0,-0.39 -0.17,-0.74 -0.17,-1.13 0,-0.42 0.17,-0.81 0.17,-1.16 0,-0.42 -0.17,-0.81 -0.17,-1.16 0,-0.39 0.17,-0.82 0.17,-1.2 0,-0.36 -0.17,-0.78 -0.17,-1.17 0,-0.39 0.17,-0.74 0.17,-1.16 0,-0.39 -0.17,-0.78 -0.17,-1.17 0,-0.38 0.17,-0.77 0.17,-1.16 0,-0.39 -0.17,-0.78 -0.17,-1.16 0,-0.36 0.17,-0.78 0.17,-1.17 0,-0.39 -0.17,-0.78 -0.17,-1.16 0,-0.39 0.17,-0.78 0.17,-1.17 0,-0.39 -0.17,-0.77 -0.17,-1.2 0,-0.35 0.17,-0.74 0.17,-1.13 0,-0.38 -0.17,-0.77 -0.17,-1.16 0,-0.42 0.17,-0.78 0.17,-1.16 0,-0.39 -0.17,-0.82 -0.17,-1.17 0,-0.39 0.17,-0.77 0.17,-1.2 0,-0.35 -0.17,-0.74 -0.17,-1.16 0,-0.39 0.17,-0.74 0.17,-1.13 0,-0.42 -0.17,-0.78 -0.17,-1.17 0,-0.42 0.17,-0.81 0.17,-1.16 0,-0.39 -0.17,-0.81 -0.17,-1.2z"/>
   <path class="fil17" d="M8552.02 8629.69c-891.26,0 -1619.43,104.77 -1669.59,236.78 50.16,132.01 782.99,287.62 1674.25,287.62 891.18,0 1614.73,-155.61 1664.9,-287.62 -50.17,-132.01 -778.37,-236.78 -1669.56,-236.78z"/>
   <path class="fil16" d="M7170.15 8813.77c-17.42,-6.71 448.24,-1245.1 709.72,-1257.55 261.48,-12.45 678.57,0 678.57,0 0,0 417.13,-12.45 678.6,0 261.48,12.45 691.03,1257.55 709.69,1257.55 0,0 -1643.74,435.78 -2776.58,0z"/>
   <path class="fil8" d="M7307.31 8441.98c-86.88,207.04 -143.4,369.39 -137.16,371.79 1132.84,435.78 2776.58,0 2776.58,0 -6.88,0 -69.43,-168.63 -158.65,-382.24 -417.4,90.7 -1576.21,295.49 -2480.77,10.45z"/>
   <polygon class="fil18" points="10284.79,14398.03 11455.17,13165.39 11455.17,8496.27 10284.79,9728.91 "/>
   <polygon class="fil19" points="10284.79,9728.91 11355.55,11036.27 12488.63,9405.2 11455.17,8496.27 "/>
   <polygon class="fil18" points="5379.1,9728.91 4507.52,10799.69 5379.1,10600.48 "/>
   <polygon class="fil19" points="5379.1,14398.03 10284.79,14398.03 10284.79,9728.91 5379.1,9728.91 "/>
   <polygon class="fil10" points="5914.48,12489.39 9637.31,12489.39 9637.31,11737.31 5914.48,11737.31 "/>
   <path class="fil7" d="M6367.13 12290.95l0 -303.1 104.42 0c23.56,0 41.55,1.41 53.97,4.3 17.36,4.02 32.18,11.29 44.45,21.73 16.02,13.55 27.94,30.76 35.84,51.79 7.98,21.02 11.93,45.08 11.93,72.11 0,23 -2.68,43.39 -8.05,61.17 -5.36,17.78 -12.27,32.52 -20.67,44.16 -8.46,11.65 -17.64,20.82 -27.66,27.45 -9.94,6.7 -22.01,11.78 -36.12,15.24 -14.18,3.46 -30.41,5.15 -48.75,5.15l-109.36 0zm40.21 -35.56l64.63 0c19.97,0 35.63,-1.83 46.99,-5.57 11.36,-3.74 20.39,-8.96 27.16,-15.74 9.46,-9.52 16.87,-22.36 22.16,-38.45 5.29,-16.09 7.97,-35.56 7.97,-58.49 0,-31.75 -5.22,-56.16 -15.59,-73.24 -10.37,-17.07 -23,-28.5 -37.89,-34.29 -10.72,-4.16 -28.01,-6.2 -51.86,-6.2l-63.57 0 0 231.98z"/>
   <path id="1" class="fil7" d="M6660.56 12143.42c0,-50.24 13.55,-89.61 40.57,-118.04 27.02,-28.43 61.88,-42.61 104.63,-42.61 28.01,0 53.2,6.7 75.71,20.03 22.43,13.34 39.58,31.96 51.36,55.88 11.78,23.85 17.71,50.94 17.71,81.21 0,30.69 -6.21,58.21 -18.63,82.41 -12.41,24.27 -29.98,42.62 -52.7,55.03 -22.79,12.49 -47.34,18.7 -73.66,18.7 -28.57,0 -54.04,-6.91 -76.55,-20.67 -22.44,-13.76 -39.51,-32.53 -51.08,-56.38 -11.57,-23.77 -17.36,-48.96 -17.36,-75.56zm41.49 0.71c0,36.47 9.8,65.19 29.42,86.14 19.61,20.96 44.24,31.47 73.87,31.47 30.2,0 54.96,-10.58 74.5,-31.75 19.48,-21.17 29.21,-51.22 29.21,-90.17 0,-24.62 -4.16,-46.14 -12.48,-64.49 -8.33,-18.34 -20.54,-32.59 -36.55,-42.68 -16.09,-10.09 -34.08,-15.17 -54.05,-15.17 -28.36,0 -52.77,9.74 -73.23,29.21 -20.46,19.47 -30.69,51.93 -30.69,97.44z"/>
   <polygon id="2" class="fil7" points="7001.69,12290.95 7001.69,11987.85 7042.9,11987.85 7201.93,12225.76 7201.93,11987.85 7240.45,11987.85 7240.45,12290.95 7199.25,12290.95 7040.22,12053.04 7040.22,12290.95 "/>
   <path id="3" class="fil7" d="M7274.6 12290.95l116.27 -303.1 44.1 0 123.4 303.1 -45.65 0 -35.07 -91.86 -127.63 0 -32.88 91.86 -42.54 0zm87.2 -124.46l103.29 0 -31.61 -84.03c-9.52,-25.54 -16.72,-46.64 -21.73,-63.29 -4.16,19.76 -9.73,39.16 -16.72,58.35l-33.23 88.97z"/>
   <polygon id="4" class="fil7" points="7631.6,12290.95 7631.6,12023.41 7531.7,12023.41 7531.7,11987.85 7771.72,11987.85 7771.72,12023.41 7671.82,12023.41 7671.82,12290.95 "/>
   <polygon id="5" class="fil7" points="7819.91,12290.95 7819.91,11987.85 7860.13,11987.85 7860.13,12290.95 "/>
   <path id="6" class="fil7" d="M7918.48 12143.42c0,-50.24 13.55,-89.61 40.57,-118.04 27.02,-28.43 61.88,-42.61 104.63,-42.61 28.01,0 53.2,6.7 75.71,20.03 22.43,13.34 39.58,31.96 51.36,55.88 11.78,23.85 17.71,50.94 17.71,81.21 0,30.69 -6.21,58.21 -18.63,82.41 -12.41,24.27 -29.98,42.62 -52.7,55.03 -22.79,12.49 -47.34,18.7 -73.66,18.7 -28.57,0 -54.04,-6.91 -76.55,-20.67 -22.44,-13.76 -39.51,-32.53 -51.08,-56.38 -11.57,-23.77 -17.36,-48.96 -17.36,-75.56zm41.49 0.71c0,36.47 9.8,65.19 29.42,86.14 19.61,20.96 44.24,31.47 73.87,31.47 30.2,0 54.96,-10.58 74.5,-31.75 19.48,-21.17 29.21,-51.22 29.21,-90.17 0,-24.62 -4.16,-46.14 -12.48,-64.49 -8.33,-18.34 -20.54,-32.59 -36.55,-42.68 -16.09,-10.09 -34.08,-15.17 -54.05,-15.17 -28.36,0 -52.77,9.74 -73.23,29.21 -20.46,19.47 -30.69,51.93 -30.69,97.44z"/>
   <polygon id="7" class="fil7" points="8259.61,12290.95 8259.61,11987.85 8300.82,11987.85 8459.85,12225.76 8459.85,11987.85 8498.37,11987.85 8498.37,12290.95 8457.17,12290.95 8298.14,12053.04 8298.14,12290.95 "/>
   <path id="8" class="fil7" d="M8681.67 12290.95l0 -303.1 113.74 0c23.14,0 41.7,3.03 55.74,9.17 13.97,6.14 24.9,15.59 32.8,28.36 7.98,12.7 11.93,26.04 11.93,40.01 0,12.91 -3.53,25.11 -10.51,36.54 -6.99,11.43 -17.57,20.68 -31.75,27.73 18.34,5.36 32.45,14.54 42.26,27.52 9.88,12.91 14.81,28.22 14.81,45.86 0,14.25 -3.03,27.44 -9.03,39.65 -5.99,12.21 -13.4,21.59 -22.22,28.22 -8.82,6.56 -19.9,11.57 -33.16,14.96 -13.34,3.39 -29.64,5.08 -48.97,5.08l-115.64 0zm40.22 -175.68l65.55 0c17.77,0 30.55,-1.2 38.24,-3.53 10.23,-3.03 17.92,-8.11 23.07,-15.17 5.15,-7.05 7.76,-15.87 7.76,-26.53 0,-10.09 -2.4,-18.98 -7.27,-26.6 -4.8,-7.69 -11.71,-12.98 -20.67,-15.8 -8.96,-2.82 -24.34,-4.23 -46.07,-4.23l-60.61 0 0 91.86zm0 140.12l75.49 0c12.99,0 22.09,-0.49 27.38,-1.48 9.17,-1.62 16.93,-4.38 23.14,-8.26 6.21,-3.88 11.29,-9.52 15.31,-16.93 4.02,-7.41 6,-15.94 6,-25.61 0,-11.36 -2.89,-21.17 -8.75,-29.56 -5.79,-8.4 -13.83,-14.26 -24.13,-17.64 -10.23,-3.39 -25.05,-5.08 -44.31,-5.08l-70.13 0 0 104.56z"/>
   <path id="9" class="fil7" d="M8953.45 12143.42c0,-50.24 13.55,-89.61 40.57,-118.04 27.02,-28.43 61.88,-42.61 104.63,-42.61 28.01,0 53.2,6.7 75.71,20.03 22.43,13.34 39.58,31.96 51.36,55.88 11.78,23.85 17.71,50.94 17.71,81.21 0,30.69 -6.21,58.21 -18.63,82.41 -12.41,24.27 -29.98,42.62 -52.7,55.03 -22.79,12.49 -47.34,18.7 -73.66,18.7 -28.57,0 -54.04,-6.91 -76.55,-20.67 -22.44,-13.76 -39.51,-32.53 -51.08,-56.38 -11.57,-23.77 -17.36,-48.96 -17.36,-75.56zm41.49 0.71c0,36.47 9.8,65.19 29.42,86.14 19.61,20.96 44.24,31.47 73.87,31.47 30.2,0 54.96,-10.58 74.5,-31.75 19.48,-21.17 29.21,-51.22 29.21,-90.17 0,-24.62 -4.16,-46.14 -12.48,-64.49 -8.33,-18.34 -20.54,-32.59 -36.55,-42.68 -16.09,-10.09 -34.08,-15.17 -54.05,-15.17 -28.36,0 -52.77,9.74 -73.23,29.21 -20.46,19.47 -30.69,51.93 -30.69,97.44z"/>
   <path id="10" class="fil7" d="M9251.54 12290.95l117.13 -157.27 -103.16 -145.83 47.77 0 55.24 77.54c11.51,16.08 19.48,28.36 24.06,36.9 6.85,-10.59 14.89,-21.88 24.13,-33.8l60.54 -80.64 43.96 0 -105.27 144.07 113.31 159.03 -49.25 0 -76.48 -108.09c-4.37,-6.14 -8.54,-12.28 -12.42,-18.34 -6.77,10.16 -11.57,17.28 -14.53,21.3l-76.84 105.13 -48.19 0z"/>
   <polygon class="fil20" points="7292.39,11792.48 8159.8,11792.48 8159.8,11630.62 7292.39,11630.62 "/>
   <path class="fil10" d="M10053.69 7589.77c125.59,-9.77 245.39,-18.2 365.09,-28.65 126.79,-11.07 192.05,-75.03 206.3,-200.44 4.91,-43.04 8.36,-86.22 11.5,-129.4 5.58,-75.6 10.34,-151.24 19.65,-227.93 1.42,11.32 3.32,22.65 4.2,34.04 9.03,116.59 16.62,233.33 27.24,349.74 8.29,91.37 70.45,158.23 161.78,168.17 122.63,13.37 245.92,20.71 368.94,30.66 9.56,0.74 19.08,1.83 28.43,5.22 -103.33,7.37 -206.69,14.39 -309.99,22.33 -31.25,2.44 -62.61,5.68 -93.41,11.47 -86.89,16.37 -146.83,79.23 -155.54,168.31 -11.08,113.1 -18.1,226.62 -26.95,339.97 -1.06,13.51 -2.44,26.99 -8.79,39.93 -7.58,-103.11 -14.53,-206.3 -23.14,-309.38 -2.86,-34.33 -5.15,-69.96 -15.98,-102.2 -29.32,-86.96 -94.55,-132.86 -184.22,-141.36 -122.87,-11.68 -246.03,-20.14 -375.11,-30.48z"/>
   <path class="fil10" d="M4557.95 14299.43c172.85,-13.48 337.8,-25.08 502.49,-39.44 174.55,-15.28 264.37,-103.34 283.98,-275.95 6.74,-59.19 11.5,-118.68 15.88,-178.09 7.62,-104.07 14.25,-208.13 27.02,-313.75 1.94,15.63 4.55,31.21 5.79,46.89 12.42,160.47 22.86,321.16 37.43,481.43 11.43,125.73 96.98,217.74 222.71,231.45 168.8,18.45 338.52,28.47 507.85,42.2 13.13,1.02 26.22,2.55 39.13,7.19 -142.24,10.17 -284.52,19.83 -426.69,30.77 -43.04,3.28 -86.22,7.72 -128.58,15.74 -119.63,22.5 -202.11,109.07 -214.07,231.66 -15.24,155.68 -24.94,311.93 -37.11,467.93 -1.45,18.58 -3.39,37.14 -12.09,55l-0.01 0c-10.44,-141.98 -20.04,-284 -31.86,-425.85 -3.95,-47.26 -7.09,-96.31 -22.01,-140.72 -40.32,-119.66 -130.11,-182.84 -253.58,-194.55 -169.08,-16.06 -338.59,-27.7 -516.28,-41.91z"/>
   <path class="fil10" d="M13586.58 10014.59c172.83,-13.44 337.79,-25.08 502.5,-39.44 174.55,-15.24 264.34,-103.3 283.99,-275.91 6.7,-59.2 11.46,-118.67 15.84,-178.12 7.62,-104.07 14.25,-208.14 27.02,-313.72 1.94,15.63 4.55,31.18 5.75,46.85 12.45,160.51 22.93,321.16 37.5,481.47 11.39,125.69 96.94,217.73 222.67,231.42 168.84,18.45 338.53,28.47 507.86,42.19 13.12,1.06 26.21,2.54 39.12,7.2 -142.24,10.16 -284.51,19.82 -426.68,30.76 -43,3.28 -86.22,7.76 -128.59,15.73 -119.63,22.55 -202.07,109.12 -214.06,231.67 -15.24,155.72 -24.95,311.93 -37.12,467.93 -1.44,18.59 -3.38,37.18 -12.1,55.03 -10.44,-141.99 -20,-283.98 -31.85,-425.87 -3.95,-47.24 -7.06,-96.31 -22.02,-140.69 -40.32,-119.66 -130.14,-182.84 -253.57,-194.56 -169.09,-16.05 -338.56,-27.73 -516.26,-41.94z"/>
   <path class="fil10" d="M8159.8 3936.37c84.53,-6.56 169.02,-13.13 253.51,-19.72 127.99,-9.95 180.8,-61.99 192.09,-189.69 3.84,-43.08 6.66,-86.22 10.01,-129.33 3.29,-42.93 6.67,-85.9 14.68,-128.83 6.95,89.71 13.97,179.45 20.81,269.17 8.79,115.46 56.84,165.84 172.58,176.81 88.73,8.39 177.7,13.97 266.32,25.47 -88.69,7.12 -177.42,13.58 -266,21.59 -113.31,10.19 -164.46,63.32 -173.07,177.13 -6.81,90.06 -13.94,180.09 -25.47,270.19 -6.63,-84.52 -13.06,-169.05 -19.86,-253.58 -10.45,-129.75 -63.43,-183.62 -192.8,-194.94 -84.17,-7.37 -168.41,-13.58 -252.62,-20.32 -0.07,-1.31 -0.11,-2.61 -0.18,-3.95z"/>
   <path class="fil10" d="M13267.18 10615.4c84.49,-6.56 169.01,-13.12 253.5,-19.68 127.96,-10.02 180.77,-61.98 192.09,-189.73 3.81,-43.07 6.67,-86.21 9.99,-129.29 3.31,-42.97 6.66,-85.93 14.67,-128.9 6.95,89.74 13.97,179.49 20.85,269.2 8.82,115.5 56.8,165.84 172.54,176.81 88.76,8.36 177.7,13.97 266.32,25.47 -88.62,7.13 -177.38,13.59 -265.96,21.59 -113.35,10.23 -164.5,63.36 -173.11,177.13 -6.78,90.07 -13.94,180.1 -25.47,270.23 -6.56,-84.52 -13.06,-169.05 -19.83,-253.57 -10.44,-129.79 -63.39,-183.66 -192.83,-194.95 -84.13,-7.37 -168.41,-13.62 -252.59,-20.32 -0.07,-1.34 -0.1,-2.68 -0.17,-3.99z"/>
   <path class="fil10" d="M2136.44 10415.48c84.5,-6.56 168.99,-13.12 253.5,-19.68 127.95,-9.98 180.8,-61.98 192.09,-189.72 3.81,-43.08 6.65,-86.22 9.97,-129.3 3.33,-42.97 6.7,-85.93 14.71,-128.87 6.94,89.71 13.98,179.46 20.82,269.21 8.81,115.46 56.82,165.8 172.57,176.77 88.72,8.4 177.71,13.97 266.31,25.48 -88.67,7.16 -177.4,13.58 -265.99,21.59 -113.32,10.23 -164.5,63.35 -173.1,177.12 -6.78,90.07 -13.91,180.1 -25.44,270.23 -6.61,-84.52 -13.07,-169.05 -19.85,-253.57 -10.45,-129.79 -63.42,-183.62 -192.83,-194.95 -84.15,-7.37 -168.4,-13.58 -252.6,-20.32 -0.05,-1.34 -0.12,-2.64 -0.16,-3.99z"/>
   <path class="fil10" d="M5221.55 7723.79c84.53,-6.56 169.02,-13.12 253.54,-19.72 127.96,-9.95 180.77,-61.95 192.09,-189.69 3.81,-43.07 6.67,-86.22 9.98,-129.33 3.32,-42.93 6.67,-85.9 14.68,-128.83 6.95,89.75 13.97,179.46 20.85,269.17 8.78,115.46 56.8,165.87 172.54,176.81 88.73,8.4 177.73,14.01 266.31,25.47 -88.65,7.13 -177.37,13.62 -265.96,21.59 -113.34,10.23 -164.5,63.36 -173.1,177.13 -6.81,90.03 -13.94,180.09 -25.47,270.23 -6.6,-84.53 -13.06,-169.05 -19.86,-253.58 -10.41,-129.79 -63.4,-183.65 -192.83,-194.98 -84.14,-7.37 -168.35,-13.58 -252.56,-20.28 -0.07,-1.34 -0.14,-2.65 -0.21,-3.99z"/>
   <path class="fil10" d="M9523.36 4457.84c-3.07,-30.72 -6.46,-61.41 -9.14,-92.14 -5.82,-66.39 -27.23,-90.31 -92.18,-99.2 -31.82,-4.38 -63.96,-6.32 -96.17,-14.22 29.28,-3.07 58.57,-6.42 87.92,-9.1 70.27,-6.39 94.82,-30.9 100.57,-100.05 2.44,-29.49 5.75,-58.91 14.36,-88.48 3,34.01 5.26,68.09 9.1,102.03 6.64,58.56 29.53,80.15 89.04,85.76 30.94,2.93 61.92,5.82 93.03,14.5 -33.87,3.42 -67.87,5.68 -101.53,10.44 -52.77,7.44 -72.78,28.08 -79.8,79.97 -2.61,19.16 -4.09,38.49 -5.75,57.79 -1.51,17.43 -2.54,34.85 -3.77,52.32 -1.91,0.14 -3.78,0.24 -5.68,0.38z"/>
   <path class="fil10" d="M10313.86 8449.49c-3.07,-30.73 -6.45,-61.42 -9.13,-92.18 -5.79,-66.36 -27.2,-90.28 -92.18,-99.17 -31.79,-4.37 -63.93,-6.35 -96.17,-14.21 29.31,-3.07 58.59,-6.42 87.95,-9.11 70.23,-6.42 94.79,-30.9 100.54,-100.04 2.47,-29.5 5.75,-58.92 14.39,-88.52 2.96,34.05 5.26,68.13 9.07,102.06 6.66,58.56 29.52,80.12 89.07,85.76 30.98,2.93 61.92,5.82 93,14.5 -33.84,3.39 -67.84,5.68 -101.5,10.41 -52.81,7.48 -72.78,28.08 -79.8,79.97 -2.64,19.2 -4.09,38.53 -5.75,57.82 -1.48,17.43 -2.57,34.86 -3.81,52.32 -1.9,0.14 -3.77,0.25 -5.68,0.39z"/>
   <path class="fil10" d="M13339.71 4718.72c-3.03,-30.69 -6.42,-61.38 -9.1,-92.14 -5.82,-66.4 -27.27,-90.31 -92.25,-99.2 -31.79,-4.38 -63.89,-6.32 -96.14,-14.22 29.32,-3.07 58.6,-6.42 87.92,-9.1 70.23,-6.39 94.82,-30.87 100.57,-100.05 2.44,-29.49 5.75,-58.91 14.4,-88.48 2.96,34.01 5.22,68.12 9.1,102.03 6.6,58.56 29.53,80.15 89,85.76 30.98,2.93 61.92,5.82 93.03,14.53 -33.83,3.39 -67.84,5.65 -101.49,10.41 -52.81,7.44 -72.82,28.08 -79.84,79.97 -2.57,19.16 -4.05,38.49 -5.75,57.79 -1.48,17.43 -2.54,34.89 -3.77,52.35 -1.91,0.11 -3.81,0.25 -5.68,0.35z"/>
   <path class="fil10" d="M3428.11 11521.13c-3.05,-30.7 -6.43,-61.39 -9.12,-92.15 -5.8,-66.39 -27.23,-90.31 -92.2,-99.2 -31.81,-4.38 -63.92,-6.28 -96.15,-14.22 29.31,-3.07 58.57,-6.42 87.9,-9.1 70.26,-6.42 94.83,-30.87 100.57,-100.05 2.45,-29.49 5.75,-58.91 14.4,-88.47 2.97,34 5.24,68.12 9.07,102.02 6.64,58.56 29.54,80.12 89.05,85.79 30.95,2.93 61.9,5.83 93.03,14.5 -33.87,3.36 -67.87,5.65 -101.5,10.41 -52.82,7.48 -72.8,28.12 -79.83,79.98 -2.61,19.15 -4.08,38.48 -5.74,57.78 -1.5,17.43 -2.56,34.89 -3.8,52.32 -1.9,0.14 -3.79,0.28 -5.68,0.39z"/>
   <path class="fil10" d="M14051.19 3921.3c-160.69,35.6 -160.69,35.6 -186.79,223.67 -4.45,-44.91 -7.73,-78.36 -11.15,-111.73 -6.53,-64.59 -30.2,-88.83 -95.64,-96.2 -26.35,-2.97 -52.95,-4.02 -80.26,-14.11 24.06,-2.3 48.09,-4.91 72.22,-6.85 74.01,-5.92 97.15,-28.22 104.38,-101.21 3.18,-32.14 6.42,-64.24 13.34,-96.27 3.63,38.49 7.02,77.01 10.97,115.46 4.97,48.19 27.59,72.22 75.53,79.41 16.16,2.4 32.7,2.47 49,3.74 16.12,1.27 32.24,2.72 48.4,4.09z"/>
   <path class="fil10" d="M4980.47 7751.73c-160.69,35.6 -160.69,35.6 -186.79,223.66 -4.48,-44.94 -7.73,-78.32 -11.12,-111.76 -6.56,-64.59 -30.22,-88.79 -95.65,-96.17 -26.37,-2.99 -52.96,-4.05 -80.27,-14.11 24.06,-2.29 48.11,-4.9 72.21,-6.84 74.04,-5.93 97.16,-28.22 104.39,-101.25 3.18,-32.1 6.43,-64.24 13.33,-96.24 3.64,38.49 7.02,77.02 10.96,115.47 4.99,48.19 27.6,72.21 75.55,79.37 16.15,2.44 32.67,2.47 49.01,3.78 16.14,1.23 32.26,2.71 48.38,4.09z"/>
   <path class="fil10" d="M9966.77 11407.32c-160.69,35.59 -160.69,35.59 -186.8,223.66 -4.48,-44.91 -7.69,-78.32 -11.11,-111.72 -6.56,-64.63 -30.24,-88.8 -95.64,-96.21 -26.39,-2.96 -52.95,-3.98 -80.26,-14.11 24.03,-2.29 48.09,-4.87 72.18,-6.81 74.05,-5.92 97.16,-28.25 104.39,-101.24 3.17,-32.14 6.45,-64.24 13.33,-96.28 3.67,38.49 7.02,77.01 10.97,115.5 4.98,48.19 27.59,72.18 75.53,79.38 16.16,2.4 32.67,2.47 49.04,3.74 16.12,1.27 32.24,2.71 48.37,4.09z"/>
   <path class="fil10" d="M8160.65 6496.44c-160.69,35.6 -160.69,35.6 -186.8,223.7 -4.44,-44.95 -7.72,-78.35 -11.11,-111.76 -6.56,-64.6 -30.23,-88.8 -95.67,-96.21 -26.36,-2.96 -52.95,-4.02 -80.26,-14.11 24.06,-2.29 48.12,-4.9 72.21,-6.84 74.05,-5.89 97.16,-28.22 104.39,-101.21 3.18,-32.14 6.42,-64.24 13.34,-96.28 3.63,38.53 7.02,77.02 10.97,115.5 4.97,48.16 27.58,72.18 75.53,79.38 16.15,2.43 32.66,2.47 49,3.74 16.15,1.27 32.28,2.72 48.4,4.09z"/>
  </g>
 </g>
</svg>
