<?xml version="1.0" encoding="UTF-8"?>
<!DOCTYPE svg PUBLIC "-//W3C//DTD SVG 1.1//EN" "http://www.w3.org/Graphics/SVG/1.1/DTD/svg11.dtd">
<!-- Creator: CorelDRAW 2019 (64-Bit) -->
<svg xmlns="http://www.w3.org/2000/svg" xml:space="preserve" width="17.9984cm" height="15.9995cm" version="1.1" style="shape-rendering:geometricPrecision; text-rendering:geometricPrecision; image-rendering:optimizeQuality; fill-rule:evenodd; clip-rule:evenodd"
viewBox="0 0 17998.44 15999.46"
 xmlns:xlink="http://www.w3.org/1999/xlink"
 xmlns:xodm="http://www.corel.com/coreldraw/odm/2003">
 <defs>
  <style type="text/css">
   <![CDATA[
    .fil28 {fill:#FEFEFE;fill-rule:nonzero}
    .fil10 {fill:#FAB891;fill-rule:nonzero}
    .fil9 {fill:#F6B992;fill-rule:nonzero}
    .fil17 {fill:#E6AD8A;fill-rule:nonzero}
    .fil7 {fill:#683C30;fill-rule:nonzero}
    .fil42 {fill:#C8EAF5;fill-rule:nonzero}
    .fil1 {fill:#BF8262;fill-rule:nonzero}
    .fil8 {fill:#AC7659;fill-rule:nonzero}
    .fil22 {fill:#C3DDF3;fill-rule:nonzero}
    .fil36 {fill:#A5DEF5;fill-rule:nonzero}
    .fil26 {fill:#9AD5F0;fill-rule:nonzero}
    .fil15 {fill:#92C2E8;fill-rule:nonzero}
    .fil21 {fill:#A46288;fill-rule:nonzero}
    .fil23 {fill:#72B3CF;fill-rule:nonzero}
    .fil38 {fill:#73D0F2;fill-rule:nonzero}
    .fil0 {fill:#75BDE6;fill-rule:nonzero}
    .fil41 {fill:#63CAE5;fill-rule:nonzero}
    .fil37 {fill:#4FC7E6;fill-rule:nonzero}
    .fil32 {fill:#7A67AA;fill-rule:nonzero}
    .fil25 {fill:#7466A8;fill-rule:nonzero}
    .fil29 {fill:#6D84BE;fill-rule:nonzero}
    .fil43 {fill:#3EC4E0;fill-rule:nonzero}
    .fil5 {fill:#6285C3;fill-rule:nonzero}
    .fil3 {fill:#5978AD;fill-rule:nonzero}
    .fil39 {fill:#627EBD;fill-rule:nonzero}
    .fil40 {fill:#586FA6;fill-rule:nonzero}
    .fil31 {fill:#705CA3;fill-rule:nonzero}
    .fil6 {fill:#6466AC;fill-rule:nonzero}
    .fil30 {fill:#5181BE;fill-rule:nonzero}
    .fil27 {fill:#5962A4;fill-rule:nonzero}
    .fil35 {fill:#5D5AA0;fill-rule:nonzero}
    .fil34 {fill:#57539C;fill-rule:nonzero}
    .fil2 {fill:#3763AC;fill-rule:nonzero}
    .fil18 {fill:#464082;fill-rule:nonzero}
    .fil20 {fill:#27475D;fill-rule:nonzero}
    .fil12 {fill:#243D4F;fill-rule:nonzero}
    .fil16 {fill:#21313D;fill-rule:nonzero}
    .fil14 {fill:#0070B7;fill-rule:nonzero}
    .fil13 {fill:#05588F;fill-rule:nonzero}
    .fil4 {fill:#305295;fill-rule:nonzero}
    .fil24 {fill:#2A3B67;fill-rule:nonzero}
    .fil33 {fill:#28365F;fill-rule:nonzero}
    .fil11 {fill:#262F50;fill-rule:nonzero}
    .fil19 {fill:#2C2B55;fill-rule:nonzero}
   ]]>
  </style>
 </defs>
 <g id="Layer_x0020_1">
  <metadata id="CorelCorpID_0Corel-Layer"/>
  <g id="_2026243670672">
   <path class="fil0" d="M15206.1 13888.92c0,140.91 -662.73,255.13 -1480.22,255.13 -817.49,0 -1480.19,-114.22 -1480.19,-255.13 0,-140.89 662.7,-255.09 1480.19,-255.09 817.49,0 1480.22,114.2 1480.22,255.09z"/>
   <path class="fil1" d="M12392.17 10616.84c0,0 452.72,-770.25 647.7,-1535.24l252.97 119.8c0,0 -169.68,720.58 -763.9,1477.99l-136.77 -62.55z"/>
   <polygon class="fil1" points="12433.9,10791.22 12551.45,10651.38 12443.39,10546.71 12369.69,10633.77 "/>
   <path class="fil1" d="M12296.7 10720.28l-59.01 68.47c-53.66,-42.58 30.23,-117.76 30.23,-117.76 0,0 113.03,-86.6 203.59,16.34 30.23,32.38 -27.06,141.46 -27.06,141.46 -29.14,37.22 -85.09,85.23 -85.09,85.23 -27.45,17.78 -44.59,-15.45 -44.59,-15.45 -33.52,17.11 -37.61,-20.11 -37.61,-20.11 -36.41,8.19 -31.85,-27.69 -31.85,-27.69 -43.89,4.76 -33.48,-40.92 -33.48,-40.92l84.87 -89.57z"/>
   <path class="fil2" d="M12896.71 9230.47c61.14,72.71 125.02,132.42 229.27,167.77 50.59,17.11 107.21,34.93 164.43,44.49 152.22,-394.72 218.69,-713.73 227.12,-791.87 0,0 10.26,-240.03 -236.01,-219.43 0,0 -281.02,-5.4 -327.91,321.59 0,0 5.61,180.2 -56.9,477.45z"/>
   <polygon class="fil3" points="13138.96,10069.86 13289.1,13786.05 13522.61,13786.05 13915.07,10069.86 "/>
   <path class="fil4" d="M13289.1 13750.77l-396.55 101.64c0,0 -50.8,15.28 -50.8,86.46l680.86 0 -9.77 -188.1 -223.74 0z"/>
   <path class="fil4" d="M14034.91 13732.26l-396.59 101.66c0,0 -50.84,15.24 -50.84,86.43l680.94 0 -9.78 -188.09 -223.73 0z"/>
   <polygon class="fil5" points="13138.96,10192.27 13552.17,10964.26 13640.65,12042.91 13997.76,13750.77 14272.79,13750.77 14051.1,11910.62 14212.18,10192.27 "/>
   <polygon class="fil1" points="13546.17,8380.56 13820.87,8380.56 13820.87,8012.87 13546.17,8012.87 "/>
   <path class="fil1" d="M14305.28 8539.59c-76.41,-118.22 -196.53,-150.32 -196.53,-150.32l-287.87 -106.61 -274.71 0 -287.72 106.61c0,0 -120.09,32.1 -196.5,150.32l1243.33 0z"/>
   <path class="fil6" d="M13889.18 8307.96l219.57 81.31c0,0 215.9,57.43 252.94,303.11l-126.93 252.38 48.05 1646.05 -1220.86 0 55.46 -1591.2 -111.9 -307.23c37.07,-245.68 252.94,-303.11 252.94,-303.11l212.93 -78.91 167.26 82.62 250.54 -85.02z"/>
   <path class="fil1" d="M14499.38 10767.27c0,0 -41.45,-869.28 -324.13,-1606.33l275.73 -48.33c0,0 243.8,665.22 196.18,1626.75l-147.78 27.91z"/>
   <polygon class="fil1" points="14634.14,10885.55 14649.34,10703.45 14500.68,10680.45 14490.81,10794.11 "/>
   <path class="fil1" d="M14481.18 10906.86l-8.61 89.96c-68.41,-3.71 -43.32,-113.53 -43.32,-113.53 0,0 42.22,-136.03 175.61,-104.24 43.39,8.96 59.62,131.06 59.62,131.06 -2.33,47.16 -20.29,118.71 -20.29,118.71 -12.1,30.37 -45.26,13.15 -45.26,13.15 -17.53,33.27 -42.37,5.3 -42.37,5.3 -24.94,27.69 -41.98,-4.2 -41.98,-4.2 -33.05,29.21 -50.97,-14.04 -50.97,-14.04l17.57 -122.17z"/>
   <path class="fil2" d="M14536.77 9161.08c-88.19,-332.04 -186.69,-567.2 -220.38,-627.7 0,0 -130.24,-201.79 -319.3,-42.76 0,0 -232.58,157.87 -82.02,451.91 0,0 98.32,135.29 209.27,402.09 135.19,-13.69 312.77,-74.04 412.43,-183.54z"/>
   <path class="fil7" d="M13267.69 7490.22c-6.31,-50.03 -11.68,-67.31 -12.95,-185.95 -0.63,-55.95 10.34,-140.37 79.84,-147.53 96.41,-9.85 126.12,156.59 131.83,228.74 7.83,99.45 -16.83,206.8 -35.98,304.13 -6.92,35.17 -6.21,105.34 -45.76,122.31 -33.83,14.53 -28.08,19.93 -45.33,-5.51 -41.7,-61.31 -62.69,-245.28 -71.65,-316.19z"/>
   <path class="fil1" d="M13273.33 7961.63c38.1,149.12 105.24,190.26 105.24,190.26l90.03 17.57c51.86,-6.6 141.18,-27.66 141.18,-27.66 205.67,-69.92 273.93,-65.69 316.41,-172.65 1.3,-3.28 142.91,-555.84 142.91,-555.84 26.31,-287.27 -274.36,-347.03 -319.8,-354.47 -44.87,-10.34 -331.22,-89.99 -415.78,185.77 0,0 -124.96,319.62 -60.19,717.02z"/>
   <path class="fil8" d="M13860.5 8017.44c-82.73,63.96 -222.75,105.91 -325.79,116.81 -182.88,19.3 -224.16,-115.47 -255.62,-258.13 2.78,32.81 6.45,66.18 12.02,100.4 35.56,139.14 98.18,177.52 98.18,177.52l83.96 16.37c48.41,-6.18 131.73,-25.82 131.73,-25.82 191.88,-65.27 255.52,-61.25 295.17,-161.05 0.18,-0.39 2.75,-10.26 6.99,-26.63 -12.67,23.21 -26.99,45.4 -46.64,60.53z"/>
   <path class="fil7" d="M13190.36 7081.63c13.05,-20.6 34.19,-17.04 44.73,-43.64 8.82,-22.29 -8.75,-54.68 6.74,-73.98 23.43,-29.06 105.02,-20.95 134.23,-11.43 51.72,16.8 61.95,45.48 117.55,20.57 47.41,-21.2 57.33,-49.11 117.79,-38.35 44.35,7.87 74.16,36.38 124.74,28.05 44.74,-7.37 73.31,-39.26 123.51,-35.28 24.27,1.98 51.3,5.65 69.39,25.16 20.78,22.43 7.55,33.44 18.81,57.18 14.35,30.23 1.23,22.19 29.38,41.13 16.34,11.01 42.09,3.36 57.33,18.84 40.32,41.03 -5.29,100.12 18.7,140.2 25.4,42.47 97.36,15.27 112.25,76.16 6.24,25.47 -16.37,46.46 -11.89,70.56 6.07,32.17 17.64,23.39 33.69,48.47 23.85,37.39 33.16,65.93 2.05,110.59 -34.75,49.89 -47.56,53.94 -47.49,123.16 0.07,75.03 -9.27,66.67 -54.22,115.99 -37.11,40.71 -27.13,88.87 -69.07,125.27 -15.45,13.37 -36.13,15.77 -53.27,34.93 -15.17,16.97 -18.52,42.79 -39.83,58.35 -8.78,-87.35 41.63,-170.32 45.9,-258.09 3.67,-75.75 -1.1,-220.98 -45.27,-283.67 -53.62,-76.06 -185.24,-51.54 -266.66,-51.47 -103.15,0.1 -599.33,-92.47 -469.09,-298.7z"/>
   <path class="fil1" d="M13935.78 7723.33c0,0 50.84,-110.8 130.78,-45.15 0,0 36.4,28.4 -8.44,102.48 0,0 -65.08,106.61 -143.05,47.59l20.71 -104.92z"/>
   <path class="fil0" d="M2991.6 13889c0,140.89 650.63,255.05 1453.2,255.05 802.57,0 1453.2,-114.16 1453.2,-255.05 0,-140.9 -650.63,-255.1 -1453.2,-255.1 -802.57,0 -1453.2,114.2 -1453.2,255.1z"/>
   <polygon class="fil9" points="5886.85,10641.99 5732.93,10543.46 5805,10411.38 5901.28,10472.56 "/>
   <path class="fil10" d="M5996.6 10533.48l76.76 47.73c38.6,-56.55 -63.85,-103.4 -63.85,-103.4 0,0 -133.67,-49 -189.48,76.27 -19.22,39.83 67.84,126.9 67.84,126.9 38.95,26.88 106.68,56.02 106.68,56.02 31.47,8.82 37.96,-27.98 37.96,-27.98 37.08,6.28 29.92,-30.37 29.92,-30.37 37.11,-3.04 22.12,-35.91 22.12,-35.91 43.32,-8.54 19.82,-49.04 19.82,-49.04l-107.77 -60.22z"/>
   <path class="fil11" d="M4850.14 13710.06l396.63 101.67c0,0 50.8,15.25 50.8,86.44l-680.93 0 9.8 -188.11 223.7 0z"/>
   <path class="fil12" d="M5727.6 10605.48l-681.63 -532.69c0,0 -96.1,-105.34 -147.85,-354.9l-186.09 -628.25c0,0 155.89,-510.36 422.63,-503.34 0,0 32.42,197.8 28.04,672.99l71.47 474.23c0,0 0.5,46.36 201.16,252.8l436.56 403.09c0,0 -37.78,172.26 -144.29,216.07z"/>
   <polygon class="fil13" points="5004.69,9993.84 4854.55,13710.06 4621.05,13710.06 4228.62,9993.84 "/>
   <polygon class="fil14" points="4627.75,9986.32 4555.75,10897.19 4393.89,12130.19 4216.13,13710.06 3980.19,13710.06 4029.26,11978.74 3943.11,9986.32 "/>
   <polygon class="fil9" points="4322.77,8304.57 4597.48,8304.57 4597.48,7936.84 4322.77,7936.84 "/>
   <path class="fil9" d="M3838.44 8463.6c76.42,-118.25 196.54,-150.35 196.54,-150.35l287.79 -106.58 274.71 0 287.73 106.58c0,0 120.12,32.1 196.56,150.35l-1243.33 0z"/>
   <path class="fil15" d="M4322.77 8206.67l-287.79 106.58c0,0 -215.94,57.47 -252.98,303.1l126.96 252.38 35.85 1323.83 1051.91 0 29.56 -1268.97 111.87 -307.24c-37.01,-245.63 -252.94,-303.1 -252.94,-303.1l-287.73 -106.58 -92.46 110.32 -182.25 -110.32z"/>
   <polygon class="fil16" points="4999.19,10085.13 4996.72,10192.56 3944.81,10192.56 3941.88,10085.13 "/>
   <path class="fil9" d="M4802.27 7940.96c-57.15,142.91 -129.05,174.94 -129.05,174.94l-91.58 5.79c-50.55,-13.26 -136.38,-45.79 -136.38,-45.79 -194.88,-95.99 -263.07,-100.68 -291.29,-212.23 -0.88,-3.46 -69.57,-569.67 -69.57,-569.67 11.22,-288.29 317.08,-308.54 363.08,-310.02 45.9,-4.41 340.11,-46.21 388.16,238.2 0,0 82.37,333.09 -33.37,718.78z"/>
   <path class="fil9" d="M4799.8 7868.85c-38.88,74.62 -109.96,161.29 -203.73,160.2 -69.78,-0.85 -151.62,-30.76 -215.9,-57.75 -69.18,-29.07 -157.66,-56.09 -217.45,-100.61l-8.75 -6.88 0 -0.14c-0.88,-3.46 -69.57,-569.67 -69.57,-569.67 11.22,-288.29 317.08,-308.54 363.08,-310.02 45.9,-4.41 340.11,-46.21 388.16,238.2 0,0 71.12,288.43 -12.17,639.16 -8.15,-3.88 -18.24,-2.82 -23.67,7.51z"/>
   <path class="fil17" d="M4225.23 7946.15c113.38,53.13 178.26,89.5 265.75,119.87 133.77,46.53 204.33,54.65 312.03,-127.81l-0.74 2.75c-57.15,142.91 -129.05,174.94 -129.05,174.94l-91.58 5.79c-50.55,-13.26 -136.38,-45.79 -136.38,-45.79 -152.72,-75.25 -227.47,-94.55 -266.35,-153.04 14.89,8.4 30.41,15.84 46.32,23.29z"/>
   <path class="fil18" d="M4878.82 7080.4c25.12,139.73 -17,509.51 -17,509.51 0,0 -11.64,-370.56 -111.41,-449.93 0,0 -99.94,-46.99 -170.5,11.78 0,0 -333.62,-129.11 -377.96,209.76l-42.94 295.17 -5.04 206.98c-211.03,-257.07 -195.69,-619.16 -195.69,-619.16 0,0 -37.18,-234.11 130.5,-265.19 0,0 -14.57,-195.61 314.67,-225.03 0,0 -47.37,63.04 -64.84,104.98 0,0 58.74,-140.26 373.42,-104.98 0,0 -79.27,23.85 -114.55,79.51 0,0 68.4,32.6 266.45,-85.23 0,0 219.78,205.25 14.89,331.83z"/>
   <path class="fil9" d="M4176.33 7618.66c0,0 -36.01,-116.45 -123.78,-61.73 0,0 -39.76,23.42 -4.98,102.73 0,0 50.73,114.08 135.68,65.72l-6.92 -106.72z"/>
   <path class="fil19" d="M4201.95 7361.52c0,0 -25.37,196.64 -2.93,305.65l-39.34 2.54c0,0 -2.47,-137.44 -71.65,-148.13l113.92 -160.06z"/>
   <path class="fil10" d="M3659.06 10661.64c0,0 20.74,-870.05 285.75,-1613.63l-276.76 -41.73c0,0 -227.87,670.8 -157.42,1631.02l148.43 24.34z"/>
   <polygon class="fil9" points="3527.13,10783.11 3507.59,10601.43 3655.71,10574.9 3668.26,10688.28 "/>
   <path class="fil10" d="M3680.54 10800.74l10.8 89.79c68.26,-5.4 40.6,-114.59 40.6,-114.59 0,0 -45.47,-134.9 -178.08,-99.97 -43.08,9.91 -56.46,132.36 -56.46,132.36 3.44,47.13 23.08,118.22 23.08,118.22 12.85,30.05 45.62,12.13 45.62,12.13 18.27,32.81 42.44,4.2 42.44,4.2 25.65,27.16 41.84,-5.15 41.84,-5.15 33.76,28.36 50.66,-15.31 50.66,-15.31l-20.5 -121.68z"/>
   <path class="fil20" d="M3701.28 10645.77c144.96,-1445.07 510.86,-1916.1 510.86,-1916.1 87.28,-260.49 -105.16,-356.06 -105.16,-356.06 -241.3,-79.52 -305.86,143.93 -305.86,143.93 -32.24,61.31 -477.76,1393.53 -328.7,2129.15 0,0 81.44,29.28 228.86,-0.92z"/>
   <path class="fil20" d="M4750.41 10652.05l-56.02 -2409.5 190.82 70.7c0,0 215.93,57.47 252.94,303.1l-111.87 307.24 55.49 1591.19 -331.36 137.27z"/>
   <path class="fil20" d="M4322.77 10670.18l-461.89 -155.4 48.08 -1646.05 -126.96 -252.38c37.04,-245.63 252.98,-303.1 252.98,-303.1l287.79 -106.58 0 2463.51z"/>
   <polygon class="fil21" points="4597.48,8314.55 4403.45,8314.55 4403.45,8409.31 4469.32,8475.17 4559.28,8475.17 4597.48,8394.85 "/>
   <polygon class="fil22" points="4505.02,8316.99 4322.77,8147.62 4172.24,8242.41 4371.17,8438.66 "/>
   <polygon class="fil22" points="4505.02,8316.99 4600.48,8167.44 4750.41,8246.82 4637.98,8427.62 "/>
   <polygon class="fil23" points="4518.11,10211.85 4712.02,10211.85 4712.02,10065.77 4518.11,10065.77 "/>
   <path class="fil24" d="M4209.6 13710.06l396.56 101.67c0,0 50.87,15.25 50.87,86.44l-680.9 0 9.78 -188.11 223.69 0z"/>
   <polygon class="fil21" points="4559.28,8475.17 4694.39,9894.07 4559.28,10044 4403.45,9894.07 4469.32,8475.17 "/>
   <path class="fil25" d="M10749.39 2298.46c-40.86,-255.27 -142.91,-500.38 -311.72,-712.4 -533.79,-670.39 -1681.4,-863.07 -2367.09,-323.5 -735.3,578.63 -1256.67,1923.31 -387.32,2545.08 97.72,69.92 208.99,130.39 329.53,181.05 -31.43,146.33 -102.9,391.23 -241.58,484.01 0,0 521.41,40.07 717.52,-344 773.71,143.69 1692.08,-49.35 2048.67,-687.7 196.36,-351.51 273.4,-758.47 211.99,-1142.54z"/>
   <path class="fil26" d="M7813.51 4473.9c-26.74,0 -42.3,-1.2 -42.3,-1.2l0 0c0,0 15.56,1.2 42.3,1.2 128.06,0 512.97,-27.45 675.22,-345.2 159.7,29.67 325.72,44.98 491.52,44.98 637.5,0.04 1274.15,-226.09 1557.15,-732.68 0.32,-0.53 0.6,-1.06 0.92,-1.62 -0.32,0.56 -0.6,1.09 -0.92,1.62 -283,506.59 -919.65,732.68 -1557.15,732.68 -165.8,0 -331.82,-15.31 -491.52,-44.98 -162.25,317.75 -547.16,345.2 -675.22,345.2zm259.04 -3212.86c0.07,-0.07 0.14,-0.14 0.25,-0.21 -0.07,0.04 -0.21,0.14 -0.25,0.21zm2.12 -1.69l0 0z"/>
   <path class="fil27" d="M7813.51 4473.9c-26.74,0 -42.3,-1.2 -42.3,-1.2 138.68,-92.78 210.15,-337.68 241.58,-484.01l0 0c-120.54,-50.66 -231.81,-111.13 -329.53,-181.05 -322.19,-230.43 -453.35,-560.14 -453.42,-913.38 -0.11,-599.86 377.96,-1267.53 840.74,-1631.7 0.67,-0.53 1.3,-1.02 1.97,-1.52 0.04,-0.07 0.18,-0.17 0.25,-0.21 0.6,-0.49 1.24,-0.99 1.87,-1.48l0 0c172.97,-135.01 375,-223.52 589.1,-269.95 -113.17,61.49 -219.74,134.1 -314.99,223.07 -254.81,237.84 -351.09,582.64 -373.06,921.13 -23.11,356.45 57.01,731.56 263.73,1026.59 202.5,289.1 530.69,430.53 872.63,473.85 93.14,11.85 188.18,17.85 283.91,17.85 440.83,0 895.24,-127.78 1235.53,-405.55 -27.27,65.79 -58.28,130.31 -93.2,193.04 -0.32,0.56 -0.6,1.09 -0.92,1.62 -283,506.59 -919.65,732.72 -1557.15,732.68 -165.8,0 -331.82,-15.31 -491.52,-44.98 -162.25,317.75 -547.16,345.2 -675.22,345.2z"/>
   <path class="fil28" d="M8637.92 2661.32c0,111.45 -90.35,201.76 -201.76,201.76 -111.48,0 -201.79,-90.31 -201.79,-201.76 0,-111.4 90.31,-201.78 201.79,-201.78 111.41,0 201.76,90.38 201.76,201.78z"/>
   <path class="fil28" d="M9275.81 2633.46c0,111.4 -90.35,201.78 -201.79,201.78 -111.48,0 -201.79,-90.38 -201.79,-201.78 0,-111.48 90.31,-201.79 201.79,-201.79 111.44,0 201.79,90.31 201.79,201.79z"/>
   <path class="fil28" d="M9913.69 2605.52c0,111.4 -90.35,201.78 -201.79,201.78 -111.41,0 -201.79,-90.38 -201.79,-201.78 0,-111.45 90.38,-201.79 201.79,-201.79 111.44,0 201.79,90.34 201.79,201.79z"/>
   <path class="fil29" d="M2131.62 3258.58l3211.53 250.08c217.7,0 394.19,176.53 394.19,394.2l-250.12 1573.67c0,217.73 -176.42,394.19 -394.19,394.19l-151.59 9.35 0.07 0c0,0 -89.96,339.34 86.5,515.8 0,0 -525.67,-127.11 -610.41,-483.63l-2035.92 125.2c-217.7,0 -394.19,-176.49 -394.19,-394.19l-250.04 -1990.48c0,-217.66 176.41,-394.19 394.17,-394.19z"/>
   <path class="fil30" d="M1744.78 3577.59c4.64,107 13.13,214.07 25.15,320.93 24.8,220.31 57.92,440.3 97.01,658.6 35.17,196.53 76.83,399.38 166.43,579.54 150.49,302.44 475.74,414.27 791.65,461.68 330.39,49.57 662.24,32.81 994.41,53.06 182.84,11.15 366.54,24.59 549.84,16.44 157.58,-7.09 335.7,-20.46 475.19,-101.95 269.59,-157.45 313.02,-548.64 349.92,-826.67 41.95,-316.86 122.2,-730.43 -97.33,-1002.35 -101.6,-125.83 -232.83,-181.75 -381.6,-234.31 -49,-17.32 -111.44,-34.33 -173.43,-56.27l801.13 62.37c217.7,0 394.19,176.53 394.19,394.2l-250.12 1573.67c0,217.73 -176.42,394.19 -394.19,394.19l-151.59 9.35 0.07 0c0,0 -89.96,339.34 86.5,515.8 0,0 -525.67,-127.11 -610.41,-483.63l-2035.92 125.2c-217.7,0 -394.19,-176.49 -394.19,-394.19l-250.04 -1990.48c0,-25.72 2.62,-50.83 7.33,-75.18z"/>
   <path class="fil28" d="M2519.42 4306.96c0,44.63 36.22,80.86 80.89,80.86l2274.21 0c44.59,0 80.85,-36.23 80.85,-80.86 0,-44.69 -36.26,-80.89 -80.85,-80.89l-2274.21 0c-44.67,0 -80.89,36.2 -80.89,80.89z"/>
   <path class="fil28" d="M2519.42 4648.03c0,44.62 36.22,80.85 80.89,80.85l2274.21 0c44.59,0 80.85,-36.23 80.85,-80.85 0,-44.7 -36.26,-80.89 -80.85,-80.89l-2274.21 0c-44.67,0 -80.89,36.19 -80.89,80.89z"/>
   <path class="fil28" d="M2519.42 4989.09c0,44.67 36.22,80.86 80.89,80.86l2274.21 0c44.59,0 80.85,-36.19 80.85,-80.86 0,-44.62 -36.26,-80.89 -80.85,-80.89l-2274.21 0c-44.67,0 -80.89,36.27 -80.89,80.89z"/>
   <path class="fil0" d="M6585.7 13838.24l-682.27 761.25c0,67.91 55.1,122.84 122.91,122.84l5947.47 0c67.8,0 122.73,-54.93 122.73,-122.84l-682.13 -761.25 -4828.71 0z"/>
   <path class="fil4" d="M6650.4 5033.3c-68.58,0 -124.11,55.45 -124.11,124l0 8651.93c0,68.45 55.53,123.9 124.11,123.9l4639.9 0c68.4,0 124.11,-55.45 124.11,-123.9l0 -8651.93c0,-68.55 -55.71,-124 -124.11,-124l-4639.9 0z"/>
   <polygon class="fil31" points="6526.29,13374.04 11414.41,13374.04 11414.41,5592.48 6526.29,5592.48 "/>
   <path class="fil32" d="M11414.41 13374.04l-4888.12 0 0 -7781.56 1462.55 2328.3c-120.54,222.92 -188.95,478.19 -188.95,749.37 0,871.5 706.44,1577.83 1577.83,1577.83 24.09,0 48.15,-0.53 71.96,-1.63l1964.73 3127.69z"/>
   <path class="fil33" d="M9645.19 5325.57c0,36.94 -29.88,66.75 -66.74,66.75 -36.8,0 -66.78,-29.81 -66.78,-66.75 0,-36.79 29.98,-66.71 66.78,-66.71 36.86,0 66.74,29.92 66.74,66.71z"/>
   <path class="fil33" d="M9491.2 5325.57c0,33.06 -26.81,59.8 -59.72,59.8l-1076.1 0c-33.09,0 -59.91,-26.74 -59.91,-59.8 0,-33.02 26.82,-59.76 59.91,-59.76l1076.1 0c32.91,0 59.72,26.74 59.72,59.76z"/>
   <path class="fil34" d="M9449.68 10246.35l-1460.84 -2325.57c266.73,-493.39 788.7,-828.57 1388.88,-828.57 871.53,0 1578.01,706.51 1578.01,1577.94 0,847.4 -667.88,1538.63 -1506.05,1576.2z"/>
   <path class="fil35" d="M9377.72 10247.98c-871.39,0 -1577.83,-706.33 -1577.83,-1577.83 0,-271.18 68.41,-526.45 188.95,-749.37l1460.84 2325.57c-23.81,1.1 -47.87,1.63 -71.96,1.63z"/>
   <path class="fil28" d="M10577.87 8575.33c0,871.52 -706.48,1577.89 -1578,1577.89 -871.4,0 -1577.84,-706.37 -1577.84,-1577.89 0,-871.4 706.44,-1577.94 1577.84,-1577.94 871.52,0 1578,706.54 1578,1577.94z"/>
   <path class="fil36" d="M8118.7 9647.83c111.26,-172.12 285.99,-218.76 285.99,-218.76l418.86 -155.21 399.84 0 418.7 155.21c0,0 174.73,46.64 286.03,218.76l-1809.42 0z"/>
   <path class="fil37" d="M10075.46 9729.77c-154.84,-250.7 -386.24,-300.7 -386.24,-300.7 -376.05,-91.01 -171.06,490.51 -171.06,490.51 -3.12,44.28 -3.16,93.4 -0.5,146.63 209.5,-72.77 398.94,-188.4 557.8,-336.44z"/>
   <polygon class="fil36" points="8749.01,9416.34 9297.93,9416.34 9297.93,8881.17 8749.01,8881.17 "/>
   <path class="fil38" d="M9297.93 9129.93l0 -248.75 -548.92 0 0 123.19c156.59,130.29 345.19,146.83 548.92,125.56z"/>
   <path class="fil37" d="M9879.97 9885.19c-17.96,-171.65 -70.72,-321.47 -190.12,-455.9l-0.63 -0.22 -391.33 -127.59c0,0 82.26,144 -277.35,144 0,0 -236.89,-9.17 -271.53,-144l-397.37 127.59c0,0 -278.96,68.64 -374.66,347.59 275.45,234.78 632.6,376.56 1022.89,376.56 325.88,0 628.67,-98.8 880.1,-268.03z"/>
   <path class="fil39" d="M9676.91 8083.91c0,-127.25 -5.4,-254.18 -2.44,-381.21 1.94,-81.25 9.39,-60.29 -84.66,-69.25 -130.36,-12.35 -173.92,229.76 -183.03,334.57 -12.59,144.5 18.63,299.93 42.66,440.76 8.67,50.87 6.35,152.75 59.54,176.6 45.55,20.39 93.1,-29.91 116.99,-67.1 54.99,-85.58 45.26,-216.5 48.93,-313.65 1.44,-40.32 2.01,-80.47 2.01,-120.72z"/>
   <path class="fil36" d="M9620.46 8806.68c-55.45,217.13 -153.17,276.93 -153.17,276.93l-131.06 25.58c-75.34,-9.6 -205.45,-40.33 -205.45,-40.33 -299.3,-101.77 -386.04,-129.18 -432.5,-243.03 -1.91,-4.83 -235.91,-817.17 -235.91,-817.17 -38.24,-418.08 399.35,-505.04 465.42,-516.01 65.34,-15.06 481.96,-130.84 605.11,270.51 0,0 181.82,465.1 87.56,1043.52z"/>
   <path class="fil40" d="M8417.43 7624.87c-145.45,70.17 -150.39,199.96 -143.58,347.56 5.33,114.51 40.67,212.16 81.6,323.14 69.78,189.34 69.78,189.34 131.65,298.21 0,0 96.42,149.89 220.56,252.66 -35.95,-142.53 -46.04,-248.92 -78.81,-358.43 -39.44,-131.3 -27.84,-307.23 30.66,-442.13 0,0 33.12,-89.78 169.15,-115.33 136.07,-25.64 0,0 0,0l-411.23 -305.68z"/>
   <path class="fil36" d="M8656.4 8459.83c0,0 -74.01,-161.22 -190.32,-65.73 0,0 -52.92,41.35 12.27,149.27 0,0 94.76,155.11 208.21,69.1l-30.16 -152.64z"/>
   <path class="fil40" d="M8644.83 8083.91c0,0 0.46,288.57 53.45,441.68l-56.2 11.14c0,0 -29.56,-197.94 -131.48,-200.3l134.23 -252.52z"/>
   <path class="fil39" d="M9748.84 7465.73c467.82,476.47 -947.8,471.63 -947.8,471.63 0,0 -148.48,68.62 -383.61,-312.49 0,0 -63.36,-297.99 606,-391.9 0,0 442.41,-54.22 725.41,232.76z"/>
   <path class="fil37" d="M7973.7 9773.89c49.84,-150.03 145.78,-272.5 317.12,-313.17 97.26,-23.18 183.83,35.66 236.53,115.82 0,0 62.81,77.57 26.32,512.59 -216.24,-63.66 -413.19,-172.32 -579.97,-315.24z"/>
   <path class="fil28" d="M10701.13 10597.79c0,56.62 -45.9,102.52 -102.52,102.52l-3197.32 0c-56.59,0 -102.52,-45.9 -102.52,-102.52 0,-56.65 45.93,-102.52 102.52,-102.52l3197.32 0c56.62,0 102.52,45.87 102.52,102.52z"/>
   <path class="fil28" d="M10701.13 11248.49c0,56.66 -45.9,102.55 -102.52,102.55l-3197.32 0c-56.59,0 -102.52,-45.89 -102.52,-102.55 0,-56.62 45.93,-102.52 102.52,-102.52l3197.32 0c56.62,0 102.52,45.9 102.52,102.52z"/>
   <path class="fil28" d="M10701.13 11901.27c0,56.66 -45.9,102.52 -102.52,102.52l-3197.32 0c-56.59,0 -102.52,-45.86 -102.52,-102.52 0,-56.62 45.93,-102.52 102.52,-102.52l3197.32 0c56.62,0 102.52,45.9 102.52,102.52z"/>
   <path class="fil41" d="M16867.19 4249.74c0,-354.22 -287.2,-641.35 -641.42,-641.35 -81.21,0 -158.58,15.7 -230.12,43.22 -67.84,-367.95 -390.03,-646.72 -777.56,-646.72 -339.97,0 -629.71,214.49 -741.57,515.48 -55.21,-39.23 -122.45,-62.47 -195.3,-62.47 -186.65,0 -337.96,151.3 -337.96,337.96 0,20.56 2.19,40.6 5.64,60.15 -66.42,-38.07 -143.19,-60.15 -225.21,-60.15 -250.72,0 -453.95,203.16 -453.95,453.88 0,201.09 130.84,371.34 311.96,430.96 -100.23,113.59 -161.61,262.36 -161.61,425.76 0,355.88 288.5,644.39 644.38,644.39 93.81,0 182.64,-20.5 263.07,-56.48 25.33,330.94 301.41,591.68 638.85,591.68 292.34,0 538.55,-195.8 615.77,-463.2 113.45,101.39 262.68,163.58 426.86,163.58 354.22,0 641.39,-287.12 641.39,-641.38 0,-194.74 -87.03,-368.8 -223.98,-486.41 255.87,-84.28 440.76,-324.81 440.76,-608.9z"/>
   <path class="fil42" d="M16867.19 4245.44l0 -0.16 0 -0.16 -0.04 -0.35 0.04 0.33 0 0.02zm-0.04 -0.6c0,-0.35 0,-0.67 0,-0.99 0,0.32 0,0.67 0,0.99zm0 -1.23c0,-0.25 0,-0.46 0,-0.71 0,0.21 0,0.49 0,0.71zm0 -1.1c0,-0.21 0,-0.35 0,-0.56 0,0.21 0,0.39 0,0.56zm-0.03 -1.02c0,-0.18 0,-0.35 0,-0.53 0,0.18 0,0.35 0,0.53zm0 -0.95c0,-0.18 0,-0.36 0,-0.53 0,0.17 0,0.35 0,0.53zm0 -0.96c0,-0.21 -0.04,-0.38 -0.04,-0.56 0,0.18 0.04,0.39 0.04,0.56zm-0.04 -1.3c0,-0.21 0,-0.39 0,-0.57 0,0.18 0,0.39 0,0.57zm-0.03 -1.06c0,-0.18 0,-0.32 0,-0.49 0,0.17 0,0.31 0,0.49zm0 -0.95c0,-0.14 0,-0.32 0,-0.5 0,0.18 0,0.36 0,0.5zm-0.04 -0.99c0,-0.14 0,-0.28 0,-0.42 0,0.14 0,0.28 0,0.42zm0 -0.99c0,-0.1 -0.03,-0.21 -0.03,-0.31 0,0.1 0.03,0.21 0.03,0.31zm-0.1 -3.42c0,-0.07 0,-0.18 0,-0.21 0,0.07 0,0.14 0,0.21zm-0.04 -0.92c0,-0.07 0,-0.14 0,-0.24 0,0.1 0,0.17 0,0.24zm-0.03 -0.88c0,-0.1 0,-0.21 0,-0.32 0,0.11 0,0.22 0,0.32zm0 -0.95c0,-0.07 -0.04,-0.11 -0.04,-0.14 0,0.03 0.04,0.07 0.04,0.14zm-0.15 -3.53c0,-0.03 0,0 0,-0.03l0 0.03zm-0.03 -0.85c0,-0.03 0,-0.03 0,-0.07 0,0.04 0,0.04 0,0.07zm-0.04 -0.91l0 -0.04c0,0.04 0,0.04 0,0.04z"/>
   <path class="fil43" d="M14966.39 6286.05c-337.44,0 -613.52,-260.74 -638.85,-591.68 -80.43,35.98 -169.26,56.48 -263.07,56.48 -355.88,0 -644.38,-288.51 -644.38,-644.39 0,-163.4 61.38,-312.17 161.61,-425.76l0 0c-181.12,-59.62 -311.96,-229.87 -311.96,-430.96 0,-250.72 203.23,-453.88 453.95,-453.88l0 0c0.28,0 0.57,0 0.85,0 0.14,0 0.24,0 0.39,0 0.14,0 0.28,0 0.42,0 0.18,0 0.39,0 0.6,0 0,0 0.03,0 0.07,0 31.89,0.17 62.93,3.81 92.96,10.3 -397.23,175.01 -313.59,770.5 40.46,793.61 -0.99,-0.07 -1.98,-0.11 -2.96,-0.11 -53.91,0 -114.97,93.1 -136.46,130.64 -48.89,85.3 -82.55,208.98 -92.25,306.52 -24.45,244.48 212.09,441.4 446.9,441.36 45.26,0 90.52,-7.33 133.81,-23.03 40.07,-14.57 77.15,-35.84 112.04,-60.15 13.79,-9.6 103.43,-66.6 102.06,-81.7 23.99,271.28 187.5,474.91 467.61,509.09 20.77,2.54 42.15,3.77 63.88,3.77 123.26,0 257.64,-39.58 357.79,-102.97 143.48,-90.84 197.1,-300.53 192.97,-462.07 85.37,102.02 194.38,155.05 307.91,155.05 98.98,0 201.43,-40.33 294.67,-123.65 179.21,-160.13 134.76,-358.46 11.64,-516.89 5.43,0.53 11.04,0.81 16.79,0.81 87.53,-0.04 212.31,-59.87 275.91,-107.81 156.53,-117.97 217.03,-342.76 211.84,-530.75 -5.29,-189.41 -106.78,-381.43 -244.22,-510.86 271.53,66.74 475.15,306.32 487.25,595.45l0 0.04c0,0.28 0.04,0.56 0.04,0.84 0,0.04 0,0.04 0,0.07 0,0.29 0.03,0.57 0.03,0.82 0,0.03 0,0 0,0.03 0.04,1.13 0.07,2.26 0.11,3.39 0,0.03 0.04,0.07 0.04,0.14 0,0.21 0,0.42 0,0.63 0,0.11 0,0.22 0,0.32 0.03,0.21 0.03,0.42 0.03,0.64 0,0.1 0,0.17 0,0.24 0,0.25 0.04,0.46 0.04,0.71 0,0.03 0,0.14 0,0.21 0.03,1.06 0.07,2.08 0.07,3.11 0,0.1 0.03,0.21 0.03,0.31 0,0.21 0,0.39 0,0.57 0,0.14 0,0.28 0,0.42 0,0.18 0,0.35 0.04,0.49 0,0.18 0,0.36 0,0.5 0,0.17 0,0.32 0,0.46 0,0.17 0,0.31 0,0.49 0.03,0.18 0.03,0.32 0.03,0.49 0,0.18 0,0.36 0,0.57 0,0.25 0,0.49 0,0.74 0,0.18 0.04,0.35 0.04,0.56 0,0.11 0,0.29 0,0.43 0,0.17 0,0.35 0,0.53 0,0.14 0,0.28 0,0.42 0,0.18 0,0.35 0,0.53 0,0.14 0.03,0.32 0.03,0.46 0,0.21 0,0.35 0,0.56 0,0.11 0,0.25 0,0.39 0,0.25 0,0.46 0,0.71 0,0.1 0,0.17 0,0.24 0,0.32 0,0.64 0,0.99 0,0.07 0,0.18 0,0.25 0.04,0.21 0.04,0.46 0.04,0.67 0,0.14 0,0.28 0,0.42 0,0.18 0,0.39 0,0.57 0,0.14 0,0.28 0,0.42 0,0.18 0,0.35 0,0.56 0,0.14 0,0.25 0,0.39 0,0.21 0,0.46 0,0.67 0,0.07 0,0.21 0,0.28 0,0.32 0,0.64 0,0.99l0 0c0,284.09 -184.89,524.62 -440.76,608.9l0 0c136.95,117.61 223.98,291.67 223.98,486.41 0,354.26 -287.17,641.38 -641.39,641.38 -164.18,0 -313.41,-62.19 -426.86,-163.58 -77.22,267.4 -323.43,463.2 -615.77,463.2z"/>
   <path class="fil41" d="M14032.2 6133.05c-61.25,73.55 -188.99,68.15 -285.3,-12.1 -96.34,-80.23 -124.7,-204.86 -63.46,-278.42 61.24,-73.52 188.98,-68.12 285.33,12.1 96.27,80.26 124.7,204.9 63.43,278.42z"/>
   <path class="fil41" d="M13699.1 6295.04c-46.42,55.78 -143.33,51.72 -216.43,-9.21 -73.13,-60.85 -94.65,-155.43 -48.19,-211.24 46.54,-55.77 143.44,-51.68 216.54,9.21 73.02,60.89 94.58,155.47 48.08,211.24z"/>
   <path class="fil41" d="M13404.46 6368.1c-32.81,39.37 -101.14,36.51 -152.75,-6.49 -51.54,-42.93 -66.78,-109.68 -33.94,-149.05 32.74,-39.37 101.14,-36.48 152.76,6.53 51.54,42.93 66.74,109.64 33.93,149.01z"/>
   <path class="fil43" d="M15060.82 4240.68c-102.76,-74.69 -169.89,-195.48 -169.89,-332.25 0,-226.91 183.94,-410.85 410.88,-410.85 136.73,0 257.6,67.1 332.24,169.9 -67.77,-49.21 -150.84,-78.6 -240.98,-78.6 -226.87,0 -410.84,183.94 -410.84,410.85 0,90.1 29.35,173.21 78.59,240.95z"/>
   <path class="fil43" d="M14626.45 5416.24c27.09,-57.47 37.18,-123.62 24.48,-190.82 -28.47,-149.54 -159.28,-253.65 -306.1,-253.65 -19.3,0 -38.91,1.8 -58.56,5.54 -67.17,12.77 -125.03,46.5 -168.56,92.75 41.17,-87.21 121.71,-154.38 223.69,-173.78 19.69,-3.74 39.27,-5.54 58.57,-5.54 146.82,0 277.63,104.14 306.03,253.65 19.4,101.98 -13.48,201.61 -79.55,271.85z"/>
   <path class="fil28" d="M14691.75 4708.64c0,96.27 -78.04,174.3 -174.27,174.3 -96.31,0 -174.31,-78.03 -174.31,-174.3 0,-96.28 78,-174.28 174.31,-174.28 96.23,0 174.27,78 174.27,174.28z"/>
   <path class="fil28" d="M15242.75 4684.54c0,96.24 -78.07,174.27 -174.27,174.27 -96.31,0 -174.31,-78.03 -174.31,-174.27 0,-96.31 78,-174.31 174.31,-174.31 96.2,0 174.27,78 174.27,174.31z"/>
   <path class="fil28" d="M15793.72 4660.41c0,96.24 -78,174.31 -174.27,174.31 -96.27,0 -174.31,-78.07 -174.31,-174.31 0,-96.24 78.04,-174.27 174.31,-174.27 96.27,0 174.27,78.03 174.27,174.27z"/>
  </g>
 </g>
</svg>
