<?xml version="1.0" encoding="UTF-8"?>
<!DOCTYPE svg PUBLIC "-//W3C//DTD SVG 1.1//EN" "http://www.w3.org/Graphics/SVG/1.1/DTD/svg11.dtd">
<!-- Creator: CorelDRAW 2019 (64-Bit) -->
<svg xmlns="http://www.w3.org/2000/svg" xml:space="preserve" width="15.9233cm" height="11.6205cm" version="1.1" style="shape-rendering:geometricPrecision; text-rendering:geometricPrecision; image-rendering:optimizeQuality; fill-rule:evenodd; clip-rule:evenodd"
viewBox="0 0 15923.26 11620.5"
 xmlns:xlink="http://www.w3.org/1999/xlink"
 xmlns:xodm="http://www.corel.com/coreldraw/odm/2003">
 <defs>
  <style type="text/css">
   <![CDATA[
    .fil7 {fill:#FEFEFE;fill-rule:nonzero}
    .fil4 {fill:#F6AAB5;fill-rule:nonzero}
    .fil1 {fill:#F6D8E7;fill-rule:nonzero}
    .fil3 {fill:#F4C3DA;fill-rule:nonzero}
    .fil2 {fill:#E6CCE2;fill-rule:nonzero}
    .fil11 {fill:#C8D8EF;fill-rule:nonzero}
    .fil9 {fill:#B6CFEC;fill-rule:nonzero}
    .fil8 {fill:#6E97CE;fill-rule:nonzero}
    .fil10 {fill:#7C67AC;fill-rule:nonzero}
    .fil6 {fill:#7070B2;fill-rule:nonzero}
    .fil5 {fill:#686AAF;fill-rule:nonzero}
    .fil0 {fill:#4A539E;fill-rule:nonzero}
   ]]>
  </style>
 </defs>
 <g id="Layer_x0020_1">
  <metadata id="CorelCorpID_0Corel-Layer"/>
  <path class="fil0" d="M10020.14 4546.88c-21.84,-431.59 -254.35,-800.48 -591.43,-1015.11 -64.52,-41.07 -83.72,-124.71 -45.26,-190.86 107.28,-184.54 162.98,-404 147.67,-635.49 -27.62,-419 -280.39,-765.92 -626.92,-922.44 110.81,-32.57 180.69,-57.44 180.69,-57.44 0,0 -254.92,-1358.47 -1601.75,-1259.91 -971.65,71.09 -1388.42,546.88 -1557.93,1028.7 -10.02,28.4 -29.63,52.57 -56.48,66.15 -222.74,112.75 -364.7,338.81 -372.85,585.08 -1.9,58.03 -38.8,108.2 -93.2,128.41 -640.33,238.06 -1004.18,929.89 -820.56,1601.47l0.21 0.78c12.49,45.58 -2.15,94.72 -38.53,124.92 -520.91,431.87 -823.87,1110.58 -739.1,1842.41 123.54,1066.93 1057.45,1871.02 2130.95,1835.5 791.18,-26.14 1457.64,-487.26 1787.98,-1140.1 198.86,-393.03 598.06,-641.63 1038.47,-648.76 6.28,-0.11 12.56,-0.25 18.8,-0.42 732.26,-22.47 1276.32,-611.23 1239.24,-1342.89z"/>
  <path class="fil1" d="M12536.33 4229.17l-12.84 -2.86c-64.56,-14.35 -129.12,26.71 -143.48,91.23l21.66 -97.43c17.11,-76.66 -31.64,-153.32 -108.3,-170.4 -76.66,-17.04 -153.32,31.72 -170.36,108.34l25.9 -116.45c17.04,-76.66 -31.68,-153.32 -108.31,-170.39 -76.65,-17.04 -153.31,31.71 -170.35,108.34l-15.24 68.36c17.04,-76.62 -31.68,-153.31 -108.34,-170.35 -76.62,-17.08 -153.32,31.68 -170.36,108.34l-220.48 990.38c-31.15,-28.29 -52.6,-66.88 -58.25,-110.59 -13.47,-103.79 -49.07,-237.32 -142.91,-250.72 -191.94,-27.45 -314.64,292.28 -279.04,844.58 35.98,558.63 154.3,577.47 154.3,577.47l-457.55 1520 -7.52 25.01 -398.39 -855.58 -959.48 628.64 897.08 2198.37c18.27,68.12 45.08,133.81 79.83,195.58l1.2 2.93 0.49 -0.04c32.71,57.54 72.11,111.76 118.25,160.94l0.29 0.28c26.28,28.01 54.47,54.58 84.87,79.13 347.49,280.78 777.21,116.03 1057.21,-174.41 341.35,-354.05 384.81,-780.14 433.67,-1248.24 40.22,-384.91 171.73,-1645.25 197.34,-1890.52l43.32 -377.44c0,0 368.9,-344.84 312.28,-1054.28l194.7 -874.74c14.39,-64.53 -26.67,-129.12 -91.19,-143.48z"/>
  <polygon class="fil2" points="10564.86,7582.03 10452.72,7341.19 10452.72,7341.19 "/>
  <path class="fil3" d="M10453.35 7952.38c-25.4,-10.69 -53.06,-16.51 -81.67,-16.51 -12.2,0 -24.59,1.06 -37,3.24l118.04 -597.92 112.14 240.84 -111.51 370.35z"/>
  <path class="fil4" d="M11726.6 4642.31l-3.81 -0.42c-9.53,-2.12 -15.49,-11.54 -13.41,-21.06l129.79 -583.01c2.08,-9.48 11.53,-15.48 21.06,-13.4 9.49,2.12 15.49,11.54 13.37,21.06l-129.75 583c-1.84,8.26 -9.14,13.83 -17.25,13.83z"/>
  <path class="fil4" d="M11997.64 4738.79l-3.81 -0.42c-9.53,-2.12 -15.53,-11.53 -13.41,-21.06l129.75 -583c2.12,-9.49 11.54,-15.38 21.06,-13.41 9.53,2.16 15.53,11.58 13.41,21.1l-129.79 583c-1.8,8.22 -9.1,13.79 -17.21,13.79z"/>
  <path class="fil4" d="M12256.29 4890.88l-3.81 -0.43c-9.52,-2.11 -15.52,-11.53 -13.4,-21.06l129.75 -583c2.12,-9.49 11.57,-15.48 21.06,-13.4 9.52,2.11 15.52,11.53 13.41,21.06l-129.79 583c-1.8,8.22 -9.1,13.83 -17.22,13.83z"/>
  <path class="fil4" d="M11547.95 5544.93l-5.47 -0.89c-9.28,-3.03 -14.32,-12.98 -11.32,-22.26 123.96,-379.8 -189.62,-533.01 -203.03,-539.36 -8.81,-4.12 -12.55,-14.64 -8.43,-23.46 4.13,-8.82 14.57,-12.59 23.46,-8.43 3.57,1.66 355.32,172.33 221.58,582.23 -2.47,7.44 -9.35,12.17 -16.79,12.17z"/>
  <path class="fil1" d="M8861.65 5987.77c-2.96,-12.6 -5.82,-24.94 -8.71,-37.4 2.89,12.46 5.75,24.8 8.71,37.4z"/>
  <path class="fil1" d="M8845.43 5917.99c-3.04,-13.09 -5.97,-25.89 -8.93,-38.77 2.96,12.88 5.89,25.68 8.93,38.77z"/>
  <path class="fil1" d="M8829.73 5849.83c-3.04,-13.3 -5.96,-26.24 -8.89,-39.33 2.93,13.09 5.85,26.03 8.89,39.33z"/>
  <path class="fil1" d="M8814.73 5783.62c-2.75,-12.25 -5.36,-24.2 -8,-36.23 2.64,12.03 5.25,23.98 8,36.23z"/>
  <path class="fil1" d="M8878.76 6060.12c-3,-12.59 -5.89,-24.9 -8.82,-37.32 2.93,12.42 5.82,24.76 8.82,37.32z"/>
  <path class="fil1" d="M8800.45 5719.2c-2.58,-11.71 -5.01,-23.07 -7.52,-34.54 2.51,11.47 4.94,22.83 7.52,34.54z"/>
  <path class="fil1" d="M8952.42 6363.55c-3.6,-14.57 -7.12,-29 -10.69,-43.43 3.57,14.43 7.09,28.86 10.69,43.43z"/>
  <path class="fil1" d="M8971.97 6442.29c-3.64,-14.61 -7.23,-29.11 -10.83,-43.64 3.6,14.53 7.19,29.03 10.83,43.64z"/>
  <path class="fil1" d="M8933.23 6285.51c-3.21,-13.01 -6.35,-25.89 -9.49,-38.8 3.14,12.91 6.28,25.79 9.49,38.8z"/>
  <path class="fil1" d="M8914.36 6208.11c-3.18,-13.05 -6.28,-25.89 -9.42,-38.8 3.14,12.91 6.24,25.75 9.42,38.8z"/>
  <path class="fil1" d="M8896.47 6134.17c-3.42,-14.14 -6.74,-28.08 -10.05,-42.08 3.31,14 6.63,27.94 10.05,42.08z"/>
  <path class="fil1" d="M8762.66 5541.26c-1.97,-9.56 -3.77,-18.73 -5.61,-28.05 1.84,9.32 3.64,18.49 5.61,28.05z"/>
  <path class="fil1" d="M8712.96 5262.39c-1.1,-7.66 -1.94,-14.68 -2.82,-21.88 0.88,7.2 1.72,14.22 2.82,21.88z"/>
  <path class="fil1" d="M8718.57 5300.95c-1.13,-7.45 -2.12,-14.29 -3.14,-21.38 1.02,7.09 2.01,13.93 3.14,21.38z"/>
  <path class="fil1" d="M8708.48 5227.5c-1.31,-11.08 -2.44,-21.52 -3.32,-31.36 0.88,9.84 2.01,20.28 3.32,31.36z"/>
  <path class="fil1" d="M8725.3 5342.79c-1.37,-8.22 -2.54,-15.88 -3.81,-23.75 1.27,7.87 2.44,15.53 3.81,23.75z"/>
  <path class="fil1" d="M8742.03 5436.24c-1.7,-9.07 -3.25,-17.68 -4.87,-26.46 1.62,8.78 3.17,17.39 4.87,26.46z"/>
  <path class="fil1" d="M8991.93 6522.12c-3.74,-14.85 -7.4,-29.56 -11.11,-44.31 3.71,14.75 7.37,29.46 11.11,44.31z"/>
  <path class="fil1" d="M8774.41 5598.16c-2.15,-10.34 -4.16,-20.21 -6.24,-30.27 2.08,10.06 4.09,19.97 6.24,30.27z"/>
  <path class="fil1" d="M8787.04 5657.6c-2.47,-11.46 -4.8,-22.54 -7.16,-33.72 2.36,11.18 4.69,22.26 7.16,33.72z"/>
  <path class="fil1" d="M8733.14 5387.83c-1.45,-8.11 -2.72,-15.73 -4.1,-23.53 1.38,7.8 2.65,15.42 4.1,23.53z"/>
  <path class="fil1" d="M8751.87 5487.25c-1.98,-9.92 -3.74,-19.41 -5.61,-29.07 1.87,9.66 3.63,19.12 5.61,29.07z"/>
  <path class="fil1" d="M9074.77 6848.15c-3.85,-15.07 -7.69,-30.09 -11.57,-45.12 3.88,15.03 7.72,30.05 11.57,45.12z"/>
  <path class="fil1" d="M9054.06 6767.3c-4.16,-16.23 -8.29,-32.38 -12.38,-48.58 4.09,16.2 8.22,32.35 12.38,48.58z"/>
  <path class="fil1" d="M9161.37 7181.56c-4.23,-15.98 -8.39,-32 -12.59,-48.01 4.2,16.05 8.36,32.03 12.59,48.01z"/>
  <path class="fil1" d="M9033 6684.72c-3.74,-14.64 -7.41,-29.18 -11.11,-43.71 3.7,14.53 7.37,29.07 11.11,43.71z"/>
  <path class="fil1" d="M9139.47 7097.95c-4.13,-15.87 -8.26,-31.78 -12.39,-47.66 4.13,15.88 8.26,31.75 12.39,47.66z"/>
  <path class="fil1" d="M9118.05 7015.54c-3.84,-14.78 -7.69,-29.56 -11.5,-44.38 3.81,14.82 7.66,29.6 11.5,44.38z"/>
  <path class="fil1" d="M9095.93 6930.17c-3.38,-13.02 -6.7,-26 -10.05,-39.02 3.35,13.02 6.67,26 10.05,39.02z"/>
  <path class="fil1" d="M9203.92 7343.41c-3.46,-13.05 -6.92,-26.17 -10.37,-39.26 3.45,13.09 6.91,26.21 10.37,39.26z"/>
  <path class="fil1" d="M9183.03 7264.25c-4.26,-16.33 -8.57,-32.67 -12.84,-49.04 4.27,16.37 8.58,32.71 12.84,49.04z"/>
  <path class="fil1" d="M9012.08 6602.17c-3.49,-13.76 -6.92,-27.45 -10.37,-41.17 3.45,13.72 6.88,27.41 10.37,41.17z"/>
  <path class="fil5" d="M10166.47 6726.45c-837.07,-1447.09 -1461.31,-1530.31 -1461.31,-1530.31 0.88,9.84 2.01,20.28 3.32,31.36 0.46,4.09 1.13,8.71 1.66,13.01 0.88,7.2 1.72,14.22 2.82,21.88 0.74,5.47 1.66,11.46 2.47,17.18 1.02,7.09 2.01,13.93 3.14,21.38 0.88,5.82 1.94,12.1 2.92,18.09 1.27,7.87 2.44,15.53 3.81,23.75 1.17,6.91 2.51,14.32 3.74,21.51 1.38,7.8 2.65,15.42 4.1,23.53 1.27,7.1 2.68,14.65 4.02,21.95 1.62,8.78 3.17,17.39 4.87,26.46 1.34,7.12 2.82,14.67 4.23,21.94 1.87,9.66 3.63,19.15 5.61,29.07 1.66,8.46 3.46,17.32 5.18,25.96 1.84,9.32 3.64,18.49 5.61,28.05 1.77,8.68 3.64,17.74 5.51,26.63 2.08,10.06 4.09,19.93 6.24,30.27 1.8,8.4 3.64,17.15 5.47,25.72 2.36,11.18 4.69,22.26 7.16,33.72 1.91,8.86 3.95,18.03 5.89,27.06 2.51,11.47 4.94,22.83 7.52,34.54 2.04,9.24 4.16,18.8 6.28,28.19 2.64,12.03 5.25,23.98 8,36.23 2.01,8.85 4.1,17.95 6.11,26.88 2.93,13.09 5.85,26.03 8.89,39.33 2.22,9.67 4.48,19.58 6.77,29.39 2.96,12.88 5.89,25.68 8.93,38.77 2.43,10.69 5.01,21.59 7.51,32.38 2.89,12.46 5.75,24.8 8.71,37.4 2.76,11.57 5.54,23.35 8.29,35.03 2.93,12.42 5.82,24.73 8.82,37.32 2.51,10.55 5.08,21.31 7.66,31.97 3.31,14 6.63,27.94 10.05,42.08 2.79,11.61 5.65,23.43 8.47,35.14 3.14,12.91 6.24,25.75 9.42,38.8 3.1,12.77 6.21,25.72 9.38,38.6 3.14,12.91 6.28,25.79 9.49,38.8 2.79,11.47 5.65,23.07 8.5,34.61 3.57,14.43 7.09,28.86 10.69,43.43 2.9,11.64 5.82,23.39 8.72,35.1 3.6,14.53 7.19,29.03 10.83,43.64 2.93,11.78 5.89,23.7 8.85,35.52 3.71,14.75 7.37,29.46 11.11,44.31 3.25,12.91 6.5,25.93 9.78,38.88 3.45,13.72 6.88,27.41 10.37,41.17 3.28,12.91 6.56,25.86 9.81,38.84 3.7,14.53 7.37,29.07 11.11,43.71 2.89,11.32 5.78,22.68 8.68,34 4.09,16.2 8.22,32.35 12.38,48.58 3.03,11.89 6.1,23.8 9.14,35.73 3.88,15.03 7.72,30.05 11.57,45.12 3.7,14.32 7.37,28.68 11.11,43 3.35,13.02 6.67,26 10.05,39.02 3.53,13.65 7.06,27.34 10.62,40.99 3.81,14.82 7.66,29.6 11.5,44.38 3,11.57 6.03,23.14 9.03,34.75 4.13,15.88 8.26,31.79 12.39,47.66 3.1,11.89 6.2,23.74 9.31,35.6 4.2,16.01 8.36,32.03 12.59,48.01 2.93,11.25 5.86,22.44 8.82,33.65 4.27,16.37 8.58,32.71 12.84,49.04 3.5,13.33 7.02,26.6 10.52,39.9 3.45,13.09 6.91,26.21 10.37,39.26 1.02,3.88 2.01,7.8 3.07,11.65l0 0.03c77.4,292.42 959.48,-628.64 959.48,-628.64z"/>
  <path class="fil6" d="M9811.23 7868.49l-547.48 -1497.22c-8.36,-1036.92 -504.83,-1356.78 -1446.11,-1349.16l-2049.63 16.55c-345.54,2.78 -651.44,184.78 -846.24,465.13l-0.11 -0.1 -1.02 1.73c-31.08,44.9 -59.3,92.32 -84.42,141.92l-1372.97 2308.81 37.28 13.13 1217.86 428.83 26.22 3210.53 4557.87 0 151.06 -2325.2 254 -401.88c187.4,-296.62 226.42,-677.44 103.69,-1013.07z"/>
  <path class="fil7" d="M5555.99 8684.46l-3.56 -0.39 -400.19 -82.72c-9.52,-1.94 -15.66,-11.29 -13.72,-20.82 1.97,-9.56 11.32,-15.94 20.85,-13.68l383.47 79.23 324.3 -1345.85c2.3,-9.52 11.82,-15.06 21.28,-13.05 9.49,2.29 15.31,11.82 13.01,21.31l-328.29 1362.46c-1.94,8.08 -9.17,13.51 -17.15,13.51z"/>
  <path class="fil8" d="M6720.23 8805.71l424.08 2203.31c22.08,114.76 132.92,190.01 247.74,168.17l3410.9 -649.25c114.2,-21.77 189.59,-131.45 168.95,-245.89l-391.9 -2171.84c-20.74,-115.08 -130.85,-191.63 -245.99,-170.96l-3443.07 617.82c-116.24,20.85 -193,132.68 -170.71,248.64z"/>
  <path class="fil9" d="M7525.68 11017.77c12.81,-7.94 25.58,-15.98 38.25,-24.2 11.43,-7.41 22.89,-14.89 34.29,-22.4l2999.74 -570.97c92,-17.54 153.31,-106.75 136.7,-198.93l-349.68 -1937.81c-14.92,-82.73 -87.34,-141.04 -168.7,-141.04 -9.98,0 -20.14,0.91 -30.33,2.71l-3072.05 551.22c-45.51,8.18 -84.95,33.65 -111.09,71.79 -26.14,38.1 -35.74,84.03 -26.99,129.4l144.96 753.21 -34.29 8.61 -145.31 -755.12c-10.55,-54.72 1.02,-110.14 32.52,-156.07 31.54,-45.97 79.1,-76.69 133.95,-86.53l3072.09 -551.22c12.2,-2.19 24.41,-3.25 36.44,-3.25 97.93,0 185.52,70.17 203.55,170.01l349.68 1937.81c20,111.16 -53.94,218.72 -164.82,239.85l-3043.42 579.3c-11.89,2.25 -23.74,3.45 -35.49,3.63z"/>
  <path class="fil9" d="M8899.54 9898.62c-116.34,0 -227.93,-66.25 -279.89,-178.61 -34.5,-74.62 -37.89,-158.22 -9.53,-235.41 28.33,-77.15 85.09,-138.68 159.71,-173.22 41.16,-19.01 85.05,-28.61 129.08,-28.61 35.8,0 71.72,6.35 106.32,19.05 77.16,28.4 138.68,85.09 173.22,159.71 71.26,154.05 3.88,337.39 -150.14,408.65 -41.74,19.3 -85.59,28.44 -128.77,28.44zm-0.63 -580.53c-38.95,0 -77.83,8.46 -114.27,25.36 -66.07,30.55 -116.31,85.02 -141.43,153.32 -25.11,68.37 -22.08,142.34 8.47,208.42 46,99.48 144.82,158.08 247.83,158.08 38.24,0 77.04,-8.04 113.98,-25.12 136.38,-63.07 196.04,-225.39 132.93,-361.81 -30.55,-66.07 -85.02,-116.31 -153.36,-141.39 -30.65,-11.25 -62.4,-16.86 -94.15,-16.86z"/>
  <path class="fil1" d="M8555.37 10137.06c-20.57,-38.24 -59.26,-60.43 -99.87,-62.58 0.85,-4.98 1.38,-8.08 1.38,-8.08l5.96 -8.43 50.27 -23.64c59.44,-27.94 95.53,-92.96 81.1,-157.13 -10.37,-46.14 -41.31,-78.74 -79.02,-95.39l0.32 -0.14c84.35,-37.11 104.98,-147.39 39.83,-212.58l-2.68 -2.68c-42.76,-42.76 -107.35,-54.9 -162.74,-30.62 -5.5,-0.04 -10.9,0.07 -16.23,0.21 50.62,-42.86 66.5,-118.82 27.17,-179.88 -37.19,-57.75 -113.56,-76.27 -176.46,-48.69l-250.23 109.75 -1084.01 271.32 -54.29 -282.01 -43.42 26c-165.85,99.45 -309.81,231.46 -423.2,388.13l-94.05 129.93c0,0 -1048.17,-325.72 -1719.61,-532.8l433.88 -924.21 -1488.94 -524.26 -739.73 1561c-49.29,104 -79.98,211.46 -93.46,318 -59.02,269.84 6.21,482.6 153.92,651.22 75.32,105.66 175.37,192.66 297.5,250.51 37.29,17.68 75.49,31.33 114.26,41.52 719.32,340.86 1905.64,373.88 2425.6,456.04 246.31,38.95 455.68,61.52 628.47,74.05 450.04,32.59 898.24,-82.62 1276.84,-328.05 338.45,-219.43 668.51,-479.5 737.72,-559.47 9,-10.37 17.4,-21.38 25.4,-32.63l181.54 -97.76c58.21,-31.36 80.19,-104.63 48.83,-162.84l-2.05 -3.81z"/>
  <polygon class="fil2" points="4555.59,9417.75 4555.59,9417.75 4713.28,9081.83 4713.28,9081.83 "/>
  <polygon class="fil3" points="4555.59,9417.75 3099.36,9020.48 4713.28,9081.83 4555.59,9417.75 "/>
  <path class="fil4" d="M7832.64 9784.25c-6.81,0 -13.27,-3.95 -16.16,-10.55 -3.92,-8.93 0.14,-19.33 9.07,-23.25l546.94 -239.96c8.93,-3.84 19.37,0.14 23.25,9.07 3.92,8.92 -0.11,19.33 -9.03,23.25l-547.02 239.96 -7.05 1.48z"/>
  <path class="fil4" d="M7910.99 10050.81c-6.78,0 -13.27,-3.92 -16.16,-10.55 -3.88,-8.93 0.14,-19.3 9.07,-23.25l546.98 -239.92c8.96,-3.81 19.37,0.14 23.25,9.06 3.88,8.93 -0.14,19.33 -9.07,23.25l-546.98 239.92 -7.09 1.49z"/>
  <path class="fil4" d="M7907.14 10344.74c-6.59,0 -12.91,-3.7 -15.91,-10.05 -4.2,-8.82 -0.46,-19.34 8.33,-23.5l539.47 -256.33c8.74,-4.23 19.33,-0.46 23.49,8.36 4.2,8.82 0.46,19.34 -8.32,23.5l-539.47 256.29 -7.59 1.73z"/>
  <path class="fil1" d="M8809.12 1977.29c-5.25,-54.76 -14.32,-108.17 -26.24,-160.38 -394.65,104.81 -1060.1,227.16 -1267.5,-66.74 -169.57,112.29 -264.29,361.17 -316.92,610.87 -8.19,38.66 -19.51,75.81 -33.66,111.26 -143.44,358.99 -583.28,494.74 -916.37,298.52l-0.46 -0.24 -24.27 -215.73 -27.41 2.65c-269.14,25.93 -468.14,267.37 -442.18,536.5 25.9,269.14 267.34,468.14 536.51,442.21l32.1 -3.1c15.21,112.39 44.59,219.67 86.61,319.93 -4.59,32.17 -7.76,64.81 -7.76,98.18l0 1200.92c0,385.84 315.66,701.54 701.5,701.54 385.82,0 701.52,-315.7 701.52,-701.54l0 -539.25c381.88,-67.49 698.57,-302.26 880.82,-620.29 174.59,-240.03 265.71,-542.26 234.95,-860.92l-111.24 -1154.39z"/>
  <path class="fil10" d="M7804.59 4612.92l0 -0.03c113.31,-20 220.91,-54.79 320.96,-102.1 -100.05,47.35 -207.65,82.13 -320.96,102.13zm321.13 -102.2c0.46,-0.21 0.89,-0.42 1.31,-0.63 -0.42,0.21 -0.85,0.42 -1.31,0.63zm2.44 -1.16c0.17,-0.07 0.32,-0.14 0.49,-0.21 -0.17,0.07 -0.32,0.14 -0.49,0.21zm-1739.86 -710.18c-30.97,-84.56 -53.34,-173.6 -65.9,-266.24l0 0 0.32 -0.03c12.53,92.6 34.68,181.71 65.58,266.27z"/>
  <path class="fil3" d="M7217.97 4866.64c-378.5,0 -692.47,-305.08 -701.26,-685.38 -0.88,-38.91 2.26,-76.94 7.59,-114.33 -55.18,-82.59 -101.07,-172.19 -136,-267.55 -30.9,-84.56 -53.05,-173.67 -65.58,-266.27l-0.32 0.03c-0.63,-5.5 92.75,-45.15 105.66,-45.15 0.88,0 1.38,0.17 1.45,0.56 112.39,592.74 632.99,1023.48 1235.73,1023.48 40.4,0 81.25,-1.94 122.28,-5.89l0 -0.04c373.69,-35.98 693.2,-231.95 897.85,-513.43 -127.6,222.53 -321.13,404.42 -556.72,516.68 -0.17,0.07 -0.32,0.14 -0.49,0.21 -0.35,0.18 -0.74,0.35 -1.13,0.53 -0.42,0.21 -0.85,0.42 -1.31,0.63 -0.07,0.04 -0.1,0.04 -0.17,0.07 -100.05,47.31 -207.65,82.1 -320.96,102.1l0 0.03c-18.52,3.28 -37.18,6.18 -55.99,8.65 -125.3,145.45 -308.54,240.13 -514.41,244.89 -5.43,0.11 -10.79,0.18 -16.22,0.18z"/>
  <path class="fil4" d="M6089.96 3189.15c-5.82,0 -11.5,-2.86 -14.89,-8.12 -5.25,-8.18 -2.86,-19.12 5.33,-24.37l167.71 -107.71 -181.75 -205c-6.46,-7.3 -5.79,-18.45 1.52,-24.9 7.23,-6.46 18.41,-5.86 24.87,1.52l195.4 220.38c3.42,3.84 4.97,9.03 4.27,14.11 -0.71,5.11 -3.6,9.66 -7.94,12.45l-185.03 118.85c-2.93,1.87 -6.25,2.79 -9.49,2.79z"/>
  <path class="fil4" d="M7885.45 4015.64c-5.22,0 -10.34,-2.3 -13.83,-6.67 -6.07,-7.59 -4.84,-18.66 2.75,-24.73 1.13,-0.95 115.6,-90.63 234.77,-14.47 8.22,5.26 10.62,16.16 5.37,24.38 -5.26,8.22 -16.2,10.55 -24.38,5.36 -97.47,-62.4 -189.83,9.21 -193.75,12.28 -3.24,2.58 -7.12,3.85 -10.93,3.85z"/>
  <path class="fil7" d="M8015.52 3764.95l-210.33 4.83c-194.8,4.48 -356.31,-149.79 -360.82,-344.59l-1.24 -53.23 650.74 -14.96 7.3 318.28c1.13,48.4 -37.22,88.54 -85.65,89.67z"/>
  <path class="fil0" d="M7610.28 2817.78l7.66 -0.74c29.35,-2.86 50.83,-28.9 48.01,-58.25l-6.25 -64.55c-2.82,-29.36 -28.89,-50.84 -58.2,-48.02l-7.66 0.74c-29.35,2.83 -50.8,28.9 -47.98,58.25l6.21 64.56c2.82,29.35 28.89,50.83 58.21,48.01z"/>
  <path class="fil0" d="M8431.12 2823.32l7.66 -0.85c29.28,-3.21 50.45,-29.56 47.24,-58.84l-7.06 -64.49c-3.21,-29.32 -29.53,-50.45 -58.84,-47.27l-7.62 0.84c-29.32,3.21 -50.49,29.57 -47.28,58.85l7.06 64.48c3.21,29.32 29.53,50.45 58.84,47.28z"/>
  <path class="fil4" d="M8075.17 3295.65c-15.91,0 -30.37,-10.79 -34.25,-26.95 -4.59,-18.95 7.02,-38 25.96,-42.58l142.49 -34.57c11.15,-2.68 17.99,-13.94 15.31,-25.09l-145.59 -605.12c-4.55,-18.94 7.12,-37.99 26.03,-42.54 19.12,-4.55 38.03,7.13 42.58,26.03l145.59 605.12c11.75,48.9 -18.41,98.32 -67.31,110.18l-142.48 34.53 -8.33 0.99z"/>
  <path class="fil7" d="M7625.7 2386.51c-21.81,0 -43.75,1.97 -65.69,5.89 -96.66,17.32 -180.8,71.26 -236.88,151.87 -56.09,80.57 -77.44,178.22 -60.11,274.88 17.32,96.67 71.26,180.8 151.86,236.89 80.57,56.13 178.08,77.44 274.88,60.12 96.66,-17.32 180.8,-71.26 236.93,-151.84 56.05,-80.61 77.43,-178.22 60.11,-274.92 -17.36,-96.66 -71.3,-180.8 -151.87,-236.89 -62.34,-43.39 -134.87,-66 -209.23,-66zm-1.77 806.09c-88.65,0 -175.05,-26.91 -249.38,-78.63 -96.05,-66.89 -160.32,-167.15 -181,-282.36 -20.63,-115.22 4.8,-231.57 71.69,-327.66 66.85,-96.06 167.13,-160.34 282.35,-181.01 115.08,-20.71 231.53,4.79 327.66,71.65 96.03,66.88 160.3,167.18 180.98,282.39 20.67,115.19 -4.77,231.57 -71.65,327.63 -66.85,96.1 -167.15,160.37 -282.37,181.01 -26.1,4.69 -52.28,6.98 -78.28,6.98z"/>
  <path class="fil7" d="M8645.75 2402.84c-21.45,0 -43.14,1.91 -64.98,5.82 -96.73,17.32 -180.83,71.26 -236.92,151.87 -56.1,80.61 -77.47,178.23 -60.12,274.89 17.32,96.69 71.23,180.8 151.84,236.92 80.61,56.09 178.22,77.47 274.88,60.12 96.7,-17.33 180.8,-71.27 236.93,-151.87 56.09,-80.61 77.43,-178.23 60.11,-274.92 -31.85,-177.66 -187.18,-302.83 -361.74,-302.83zm-1.05 806.06c-88.69,0 -175.12,-26.95 -249.42,-78.67 -96.1,-66.85 -160.37,-167.14 -181.01,-282.36 -20.67,-115.22 4.8,-231.56 71.65,-327.66 66.89,-96.06 167.15,-160.34 282.36,-181.01 237.99,-42.65 466.02,116.2 508.67,354.05 20.68,115.18 -4.79,231.56 -71.65,327.66 -66.88,96.06 -167.18,160.34 -282.36,181.01 -26.1,4.65 -52.32,6.98 -78.24,6.98z"/>
  <path class="fil7" d="M8065.12 2805.61c-18.21,0 -33.66,-14.01 -35.14,-32.49 -1.55,-19.41 12.95,-36.41 32.38,-37.96l157.2 -12.53c19.3,-1.41 36.44,12.99 37.96,32.39 1.55,19.4 -12.95,36.41 -32.38,37.96l-157.2 12.52 -2.82 0.11z"/>
  <path class="fil0" d="M7430.5 2285.65c26.39,4.69 56.73,-5.54 86.58,-13.76 29.91,-8.93 60.18,-17.11 86.71,-23.32 26.6,-6.24 57.36,-12.35 88.12,-17.64 30.45,-5.92 62.3,-10.26 83.47,-26.14 20.57,-14.99 23.39,-44.8 -11.61,-72.46 -33.12,-27.13 -107.91,-47.55 -195.93,-27.16 -87.84,20.81 -144.67,72.1 -161.29,110.88 -17.96,40.07 -1.41,65.33 23.95,69.6z"/>
  <path class="fil0" d="M8729.47 2223.07c-26.46,4.33 -56.62,-6.39 -86.36,-15.03 -29.78,-9.35 -59.9,-17.99 -86.33,-24.59 -26.53,-6.63 -57.18,-13.2 -87.87,-18.98 -30.34,-6.35 -62.13,-11.15 -83.12,-27.34 -20.32,-15.31 -22.65,-45.16 12.74,-72.29 33.51,-26.63 108.58,-45.96 196.32,-24.23 87.49,22.12 143.54,74.22 159.59,113.24 17.4,40.32 0.43,65.33 -24.97,69.22z"/>
  <path class="fil4" d="M7510.55 2861.45c-5.61,0 -11.11,-2.64 -14.53,-7.62 -5.54,-7.97 -3.57,-18.94 4.44,-24.48 4.83,-3.39 119.87,-81.85 213.71,-16.16 7.98,5.61 9.88,16.62 4.31,24.59 -5.61,7.94 -16.62,9.91 -24.59,4.3 -73.41,-51.47 -172.33,15.56 -173.36,16.23 -3.07,2.12 -6.56,3.14 -9.98,3.14z"/>
  <path class="fil4" d="M8351.78 2877.29c-5.57,0 -11.04,-2.64 -14.5,-7.58 -5.53,-8.01 -3.52,-18.98 4.45,-24.56 4.87,-3.38 119.94,-81.84 213.71,-16.15 7.94,5.61 9.92,16.61 4.31,24.59 -5.58,7.97 -16.58,9.84 -24.56,4.3 -73.76,-51.72 -172.33,15.52 -173.35,16.23 -3.04,2.15 -6.56,3.17 -10.06,3.17z"/>
  <path class="fil11" d="M12286.49 -10.69c-934.54,0 -1692.13,757.59 -1692.13,1692.17 0,349.85 106.18,674.9 288.11,944.7 -0.67,5.08 -11.15,56.77 -17.89,91.52 -31.64,130.38 -113.17,369.46 -308.68,540.52 -151.51,127.6 298.88,228.71 623.12,14.54 66.21,-43.36 127.49,-100.58 177.72,-174.59l1.27 -1.98c266.56,175.3 585.58,277.39 928.48,277.39 934.54,0 1692.13,-757.59 1692.13,-1692.1 0,-934.58 -757.59,-1692.17 -1692.13,-1692.17z"/>
  <path class="fil7" d="M11454.78 970.21l180.17 0c36.65,0 66.39,29.74 66.39,66.43l0 213.78c0,53.48 59.65,83.29 103.89,53.24l1.27 -0.85c42.05,-28.4 94.4,-42.58 156.95,-42.58 95.53,0 169.94,28.93 223.17,86.82 53.27,57.89 79.9,137.62 79.9,239.18l0 513.54c0,36.69 -29.74,66.43 -66.39,66.43l-180.09 0c-36.66,0 -66.4,-29.74 -66.4,-66.43l0 -413.6c0,-49.14 -11.35,-86.29 -33.97,-111.4 -22.68,-25.12 -52.28,-37.68 -88.93,-37.68 -37.79,0 -68.79,12.56 -93.03,37.68 -24.27,25.11 -36.37,62.26 -36.37,111.4l0 413.6c0,36.69 -29.74,66.43 -66.39,66.43l-180.17 0c-36.65,0 -66.39,-29.74 -66.39,-66.43l0 -1063.13c0,-36.69 29.74,-66.43 66.39,-66.43z"/>
  <path class="fil7" d="M12548.29 1279.88l83.57 0c63.32,0 114.69,51.33 114.69,114.69l0 656.94c0,63.32 -51.37,114.69 -114.69,114.69l-83.57 0c-63.33,0 -114.69,-51.37 -114.69,-114.69l0 -656.94c0,-63.36 51.36,-114.69 114.69,-114.69zm-6.53 -309.67l96.66 0c63.36,0 114.69,51.36 114.69,114.69 0,63.36 -51.33,114.69 -114.69,114.69l-96.66 0c-63.32,0 -114.69,-51.33 -114.69,-114.69 0,-63.33 51.37,-114.69 114.69,-114.69z"/>
  <path class="fil7" d="M13033.32 1887.68l134.16 0c52.53,0 95.11,42.58 95.11,95.11l0 88.26c0,52.57 -42.58,95.15 -95.11,95.15l-134.16 0c-52.53,0 -95.11,-42.58 -95.11,-95.15l0 -88.26c0,-52.53 42.58,-95.11 95.11,-95.11zm-109.85 -736.14l0 -37.04c0,-52.53 42.58,-95.11 95.11,-95.11l163.65 0c52.53,0 95.11,42.58 95.11,95.11l0 37.04c0,4.73 -0.32,9.45 -1.03,14.11l-81.8 545.99c-6.99,46.57 -46.99,81.04 -94.09,81.04 -47.1,0 -87.1,-34.47 -94.05,-81.04l-81.85 -545.99c-0.7,-4.66 -1.05,-9.38 -1.05,-14.11z"/>
 </g>
</svg>
